<?xml version="1.0" encoding="utf-8"?>
<!-- Generator: Adobe Illustrator 22.1.0, SVG Export Plug-In . SVG Version: 6.00 Build 0)  -->
<svg version="1.1" id="Laag_1" xmlns="http://www.w3.org/2000/svg" xmlns:xlink="http://www.w3.org/1999/xlink" x="0px" y="0px"
	 width="1000px" height="700px" viewBox="0 0 1000 700" style="enable-background:new 0 0 1000 700;" xml:space="preserve">
<style type="text/css">
	.st0{opacity:0.2;}
	.st1{enable-background:new    ;}
	.st2{fill:#32293A;}
	.st3{fill:#989797;}
	.st4{fill:#A6A6A6;}
	.st5{fill:#C9C9C9;}
	.st6{clip-path:url(#SVGID_2_);}
	.st7{clip-path:url(#SVGID_4_);}
	.st8{clip-path:url(#SVGID_6_);}
	.st9{clip-path:url(#SVGID_8_);}
	.st10{clip-path:url(#SVGID_10_);}
	.st11{clip-path:url(#SVGID_12_);}
	.st12{clip-path:url(#SVGID_14_);}
	.st13{clip-path:url(#SVGID_16_);}
	.st14{fill:#E20D18;}
	.st15{clip-path:url(#SVGID_18_);}
	.st16{fill:#851811;}
	.st17{fill:#ECECEC;}
	.st18{fill:#798083;}
	.st19{fill:#C9DBDB;}
	.st20{fill:#3F3F4B;}
	.st21{fill:#6DBAE9;}
	.st22{fill:#42A8DF;}
	.st23{clip-path:url(#SVGID_20_);enable-background:new    ;}
	.st24{fill:#2A2A32;}
	.st25{fill:#282830;}
	.st26{fill:#27272F;}
	.st27{fill:#DB3415;}
	.st28{fill:#23242B;}
	.st29{clip-path:url(#SVGID_22_);enable-background:new    ;}
	.st30{fill:#22232A;}
	.st31{fill:#202028;}
	.st32{fill:#1F1F27;}
	.st33{fill:#1F1F26;}
	.st34{fill:#1E1E24;}
	.st35{fill:#1D1D23;}
	.st36{fill:#1C1D22;}
	.st37{clip-path:url(#SVGID_24_);enable-background:new    ;}
	.st38{fill:#24252C;}
	.st39{fill:#26262E;}
	.st40{fill:#292931;}
	.st41{fill:#2A2A33;}
	.st42{fill:#2B2B34;}
	.st43{opacity:0.4;}
	.st44{clip-path:url(#SVGID_26_);}
	.st45{fill:#5E5E5E;}
	.st46{clip-path:url(#SVGID_28_);}
	.st47{clip-path:url(#SVGID_30_);}
	.st48{fill:#FFFFFF;}
	.st49{clip-path:url(#SVGID_32_);}
	.st50{clip-path:url(#SVGID_34_);}
	.st51{clip-path:url(#SVGID_36_);}
	.st52{clip-path:url(#SVGID_38_);}
	.st53{clip-path:url(#SVGID_40_);}
	.st54{clip-path:url(#SVGID_42_);}
	.st55{clip-path:url(#SVGID_44_);enable-background:new    ;}
	.st56{clip-path:url(#SVGID_46_);enable-background:new    ;}
	.st57{clip-path:url(#SVGID_48_);enable-background:new    ;}
	.st58{fill:#C8CBD0;}
	.st59{fill:#6E6E6E;}
	.st60{fill:#B51C1A;}
	.st61{fill:#FEDDAB;}
	.st62{fill:#FDCE7E;}
	.st63{fill:#FBBC51;}
	.st64{fill:#3D3D3D;}
	.st65{fill:#ED6867;}
	.st66{fill:#CDCCCC;}
	.st67{fill:#A8A9AD;}
	.st68{fill:#64160E;}
	.st69{opacity:0.2;fill:#32293A;}
	.st70{clip-path:url(#SVGID_50_);}
	.st71{clip-path:url(#SVGID_52_);}
	.st72{clip-path:url(#SVGID_54_);}
	.st73{clip-path:url(#SVGID_56_);}
	.st74{clip-path:url(#SVGID_58_);}
	.st75{clip-path:url(#SVGID_60_);}
	.st76{clip-path:url(#SVGID_62_);}
	.st77{clip-path:url(#SVGID_64_);}
	.st78{clip-path:url(#SVGID_66_);}
	.st79{fill:#E2EFF5;}
	.st80{clip-path:url(#SVGID_68_);}
	.st81{clip-path:url(#SVGID_70_);}
	.st82{clip-path:url(#SVGID_72_);}
	.st83{fill:#2C2C34;}
	.st84{fill:#28282F;}
	.st85{fill:#30313A;}
	.st86{fill:#1F1F25;}
	.st87{fill:#353641;}
	.st88{fill:#2E2E37;}
	.st89{fill:#F4F2F1;}
	.st90{fill:#094F7E;}
	.st91{fill:#5489C4;}
	.st92{fill:#0070B4;}
	.st93{fill:#243359;}
	.st94{fill:#43839C;}
	.st95{fill:#9AD7F6;}
	.st96{fill:#62C7F1;}
	.st97{fill:#054168;}
	.st98{fill:#3D5A99;}
	.st99{fill:#4474AE;}
	.st100{clip-path:url(#SVGID_74_);}
	.st101{clip-path:url(#SVGID_76_);}
	.st102{clip-path:url(#SVGID_78_);}
	.st103{clip-path:url(#SVGID_80_);}
	.st104{clip-path:url(#SVGID_82_);}
	.st105{clip-path:url(#SVGID_84_);}
	.st106{clip-path:url(#SVGID_86_);}
	.st107{clip-path:url(#SVGID_88_);}
	.st108{clip-path:url(#SVGID_90_);}
	.st109{fill:#CAC5CC;}
	.st110{fill:#B0551A;}
	.st111{fill:#914815;}
	.st112{fill:#ED6D1E;}
</style>
<g>
	<g>
		<polygon class="st3" points="219.7,511.4 90.9,428.3 367.4,265.1 368,265.5 435.1,309.3 433.8,311.2 367.4,267.8 95.3,428.4 
			221,509.5 		"/>
	</g>
	<g>
		<polygon class="st3" points="564.3,584.5 377.6,475.9 421.6,450.2 422.8,452.3 382.3,475.9 565.5,582.5 		"/>
	</g>
	<g>
		<polyline class="st3" points="737.5,182.6 582.1,279.7 580.8,277.7 737.5,179.8 		"/>
	</g>
	<g>
		<polygon class="st3" points="855.8,434.3 854.6,432.3 902.4,404.7 688.3,277.9 639.8,308.4 638.6,306.5 688.2,275.2 688.8,275.6 
			907,404.7 		"/>
	</g>
	<g>
		<g>
			<g class="st1">
				<defs>
					<polygon id="SVGID_31_" class="st1" points="202.4,278.9 214.7,271.7 226.5,278.5 214.2,285.7 					"/>
				</defs>
				<clipPath id="SVGID_2_">
					<use xlink:href="#SVGID_31_"  style="overflow:visible;"/>
				</clipPath>
				<g class="st6">
					<g>
						<polygon class="st3" points="226.5,278.5 214.7,271.7 202.4,278.9 214.2,285.7 226.5,278.5 						"/>
					</g>
				</g>
			</g>
		</g>
		<g>
			<g class="st1">
				<defs>
					<polygon id="SVGID_33_" class="st1" points="225.3,266.6 237.6,259.5 249.4,266.3 237.1,273.5 					"/>
				</defs>
				<clipPath id="SVGID_4_">
					<use xlink:href="#SVGID_33_"  style="overflow:visible;"/>
				</clipPath>
				<g class="st7">
					<g>
						<polygon class="st4" points="249.4,266.3 237.6,259.5 225.3,266.6 237.1,273.5 249.4,266.3 						"/>
					</g>
				</g>
			</g>
		</g>
		<g>
			<g class="st1">
				<defs>
					<polygon id="SVGID_35_" class="st1" points="248.2,254.6 260.5,247.5 272.3,254.3 260,261.5 					"/>
				</defs>
				<clipPath id="SVGID_6_">
					<use xlink:href="#SVGID_35_"  style="overflow:visible;"/>
				</clipPath>
				<g class="st8">
					<g>
						<polygon class="st3" points="272.3,254.3 260.5,247.5 248.2,254.6 260,261.5 272.3,254.3 						"/>
					</g>
				</g>
			</g>
		</g>
	</g>
	<g>
		<g>
			<g class="st1">
				<defs>
					<polygon id="SVGID_37_" class="st1" points="660,543.6 674,535.4 687.5,543.2 673.5,551.4 					"/>
				</defs>
				<clipPath id="SVGID_8_">
					<use xlink:href="#SVGID_37_"  style="overflow:visible;"/>
				</clipPath>
				<g class="st9">
					<g>
						<polygon class="st3" points="687.5,543.2 674,535.4 660,543.6 673.5,551.4 687.5,543.2 						"/>
					</g>
				</g>
			</g>
		</g>
		<g>
			<g class="st1">
				<defs>
					<polygon id="SVGID_39_" class="st1" points="686.1,529.7 700.2,521.5 713.6,529.3 699.6,537.4 					"/>
				</defs>
				<clipPath id="SVGID_10_">
					<use xlink:href="#SVGID_39_"  style="overflow:visible;"/>
				</clipPath>
				<g class="st10">
					<g>
						<polygon class="st14" points="713.6,529.3 700.2,521.5 686.1,529.7 699.6,537.4 713.6,529.3 						"/>
					</g>
				</g>
			</g>
		</g>
		<g>
			<g class="st1">
				<defs>
					<polygon id="SVGID_41_" class="st1" points="712.2,516 726.3,507.8 739.8,515.6 725.7,523.7 					"/>
				</defs>
				<clipPath id="SVGID_12_">
					<use xlink:href="#SVGID_41_"  style="overflow:visible;"/>
				</clipPath>
				<g class="st11">
					<g>
						<polygon class="st3" points="739.8,515.6 726.3,507.8 712.2,516 725.7,523.7 739.8,515.6 						"/>
					</g>
				</g>
			</g>
		</g>
	</g>
	<g>
		<g class="st1">
			<g>
				<g>
					<path class="st3" d="M707.6,434.5c-5.9-3.4-15.4-3.4-21.3,0c-3.1,1.8-4.6,4.3-4.3,6.7l-21.6,2.3c-1-2.3-3.1-4.5-6.2-6.3
						c-2.5-1.4-5.4-2.5-8.5-3.2l5-10.1c4.6,0.4,9.5-0.4,13-2.4c5.9-3.4,5.8-8.9-0.1-12.3c-5.9-3.4-15.4-3.4-21.3,0
						c-5.9,3.4-5.8,8.9,0.1,12.3c1.4,0.8,3,1.4,4.7,1.8l-5,10.1c-7.6-0.9-15.9,0.3-21.8,3.8c-9.3,5.4-9.2,14.2,0.1,19.6
						c9.4,5.4,24.5,5.4,33.8,0c5.3-3.1,7.5-7.2,6.8-11.2l21.6-2.3c0.7,1.3,2,2.5,3.7,3.6c5.9,3.4,15.4,3.4,21.3,0
						C713.5,443.5,713.5,437.9,707.6,434.5L707.6,434.5z"/>
				</g>
			</g>
		</g>
	</g>
	<g>
		<g class="st1">
			<g>
				<g>
					<path class="st3" d="M437.1,589.4l-8.8-5.1c-0.9-0.5-2.4-0.5-3.3,0l-17,9.9c-0.9,0.5-2.4,0.5-3.3,0l-17.1-9.9
						c-0.9-0.5-2.4-0.5-3.3,0l-8.8,5.1c-0.9,0.5-0.9,1.4,0,1.9l17.1,9.9c0.9,0.5,0.9,1.4,0,1.9l-17,9.9c-0.9,0.5-0.9,1.4,0,1.9
						l8.8,5.1c0.9,0.5,2.4,0.5,3.3,0l17-9.9c0.9-0.5,2.4-0.5,3.3,0l17.1,9.9c0.9,0.5,2.4,0.5,3.3,0l8.8-5.1c0.9-0.5,0.9-1.4,0-1.9
						l-17.1-9.9c-0.9-0.5-0.9-1.4,0-1.9l17-9.9C438,590.8,438,590,437.1,589.4L437.1,589.4z"/>
				</g>
			</g>
		</g>
	</g>
	<g>
		<g class="st1">
			<g>
				<g>
					<path class="st3" d="M858.6,527.7l-5-2.9c-0.5-0.3-1.4-0.3-1.9,0l-9.6,5.6c-0.5,0.3-1.4,0.3-1.9,0l-9.7-5.6
						c-0.5-0.3-1.4-0.3-1.9,0l-5,2.9c-0.5,0.3-0.5,0.8,0,1.1l9.7,5.6c0.5,0.3,0.5,0.8,0,1.1l-9.6,5.6c-0.5,0.3-0.5,0.8,0,1.1l5,2.9
						c0.5,0.3,1.4,0.3,1.9,0l9.6-5.6c0.5-0.3,1.4-0.3,1.9,0l9.7,5.6c0.5,0.3,1.4,0.3,1.9,0l5-2.9c0.5-0.3,0.5-0.8,0-1.1l-9.7-5.6
						c-0.5-0.3-0.5-0.8,0-1.1l9.6-5.6C859.1,528.5,859.1,528,858.6,527.7L858.6,527.7z"/>
				</g>
			</g>
		</g>
	</g>
	<g>
		<g class="st1">
			<g>
				<g>
					<path class="st3" d="M645.8,212.9l-5-2.9c-0.5-0.3-1.4-0.3-1.9,0l-9.6,5.6c-0.5,0.3-1.4,0.3-1.9,0l-9.7-5.6
						c-0.5-0.3-1.4-0.3-1.9,0l-5,2.9c-0.5,0.3-0.5,0.8,0,1.1l9.7,5.6c0.5,0.3,0.5,0.8,0,1.1l-9.6,5.6c-0.5,0.3-0.5,0.8,0,1.1l5,2.9
						c0.5,0.3,1.4,0.3,1.9,0l9.6-5.6c0.5-0.3,1.4-0.3,1.9,0l9.7,5.6c0.5,0.3,1.4,0.3,1.9,0l5-2.9c0.5-0.3,0.5-0.8,0-1.1l-9.7-5.6
						c-0.5-0.3-0.5-0.8,0-1.1l9.6-5.6C646.3,213.7,646.3,213.2,645.8,212.9L645.8,212.9z"/>
				</g>
			</g>
		</g>
	</g>
	<g>
		<g class="st1">
			<g>
				<g>
					<path class="st14" d="M193.6,336.4l-5-2.9c-0.5-0.3-1.4-0.3-1.9,0l-9.6,5.6c-0.5,0.3-1.4,0.3-1.9,0l-9.7-5.6
						c-0.5-0.3-1.4-0.3-1.9,0l-5,2.9c-0.5,0.3-0.5,0.8,0,1.1l9.7,5.6c0.5,0.3,0.5,0.8,0,1.1l-9.6,5.6c-0.5,0.3-0.5,0.8,0,1.1l5,2.9
						c0.5,0.3,1.4,0.3,1.9,0l9.6-5.6c0.5-0.3,1.4-0.3,1.9,0l9.7,5.6c0.5,0.3,1.4,0.3,1.9,0l5-2.9c0.5-0.3,0.5-0.8,0-1.1l-9.7-5.6
						c-0.5-0.3-0.5-0.8,0-1.1l9.6-5.6C194.1,337.2,194.1,336.7,193.6,336.4L193.6,336.4z"/>
				</g>
			</g>
		</g>
	</g>
	<g>
		<g class="st1">
			<g>
				<g>
					<path class="st3" d="M109.3,421.7c-5.3-3.1-13.9-3.1-19.1,0c-5.3,3.1-5.2,8,0,11.1c5.3,3.1,13.9,3.1,19.1,0
						C114.6,429.7,114.6,424.8,109.3,421.7L109.3,421.7z"/>
				</g>
			</g>
		</g>
	</g>
	<g>
		<g class="st1">
			<g>
				<g>
					<path class="st3" d="M699.1,274.3c-5.3-3.1-13.9-3.1-19.1,0c-5.3,3.1-5.2,8,0.1,11.1c5.3,3.1,13.9,3.1,19.1,0
						C704.4,282.4,704.4,277.4,699.1,274.3L699.1,274.3z"/>
				</g>
			</g>
		</g>
	</g>
	<g>
		<g class="st1">
			<g>
				<g>
					<path class="st4" d="M907.5,399.3c-5.3-3.1-13.9-3.1-19.1,0c-5.3,3.1-5.2,8,0.1,11.1c5.3,3.1,13.9,3.1,19.1,0
						C912.8,407.3,912.8,402.4,907.5,399.3L907.5,399.3z"/>
				</g>
			</g>
		</g>
	</g>
	<g>
		<g class="st1">
			<g>
				<g>
					<path class="st4" d="M243.5,340c-3.4-2-8.9-2-12.3,0c-3.4,2-3.4,5.2,0,7.1c3.4,2,8.9,2,12.3,0C246.9,345.2,246.9,342,243.5,340
						L243.5,340z"/>
				</g>
			</g>
		</g>
	</g>
	<g>
		<g class="st1">
			<g>
				<g>
					<path class="st3" d="M477.3,525c-3.4-2-8.9-2-12.3,0c-3.4,2-3.4,5.2,0,7.1c3.4,2,8.9,2,12.3,0C480.7,530.2,480.7,527,477.3,525
						L477.3,525z"/>
				</g>
			</g>
		</g>
	</g>
	<g>
		<g class="st1">
			<g>
				<g>
					<path class="st14" d="M799,334.7c-3.4-2-8.9-2-12.3,0c-3.4,2-3.4,5.1,0,7.1c3.4,2,8.9,2,12.3,0
						C802.4,339.9,802.4,336.7,799,334.7L799,334.7z"/>
				</g>
			</g>
		</g>
	</g>
	<g>
		<g class="st1">
			<g>
				<g>
					<path class="st4" d="M397.9,469.8c-5.4-3.1-14-3.1-19.4,0c-5.3,3.1-5.3,8.1,0,11.2c5.4,3.1,14.1,3.1,19.4,0
						C403.4,477.9,403.3,472.9,397.9,469.8L397.9,469.8z"/>
				</g>
			</g>
		</g>
	</g>
	<g class="st0">
		<path class="st2" d="M805.2,449.5c0,3.6-5.8,6.6-13,6.6c-7.2,0-13-2.9-13-6.6c0-3.6,5.8-6.6,13-6.6
			C799.3,442.9,805.2,445.9,805.2,449.5z"/>
	</g>
	<g class="st0">
		<g>
			<path class="st2" d="M835.8,444.5c9.2-5.3,16.6,1.7,16.6,15.6l-33.1,19.1C819.3,465.4,826.7,449.8,835.8,444.5z"/>
		</g>
	</g>
	<g class="st0">
		<path class="st2" d="M759.5,456.1c0,4.5-7.3,8.2-16.3,8.2c-9,0-16.3-3.7-16.3-8.2c0-4.5,7.3-8.2,16.3-8.2
			C752.2,447.9,759.5,451.6,759.5,456.1z"/>
	</g>
	<g>
		<g>
			<g>
				<g class="st0">
					<g>
						<g class="st1">
							<g>
								<g>
									<polygon class="st2" points="543.4,293.3 443.2,235.7 251.1,349 351.3,406.6 543.4,293.3 									"/>
								</g>
							</g>
						</g>
					</g>
				</g>
				<g>
					<g>
						<g class="st1">
							<g>
								<g>
									<path class="st17" d="M669.1,315.2c11.5,6.6-7.5,14.9-17.8,20.9L474,439.2c-20.2,11.7-25.6,16.4-36.1,10.4l-131.2-75.7
										c-9.2-5.3-7.8-6.1,17.8-20.9l177.3-103c20.7-12,25.7-16.4,36.1-10.4L669.1,315.2z"/>
								</g>
							</g>
							<g>
								<path class="st19" d="M672.7,320c0,0.1,0,0.3,0,0.4c0,0.1,0,0.1,0,0.2c0,0.2-0.1,0.3-0.1,0.5c0,0.1,0,0.1-0.1,0.2
									c-0.1,0.2-0.2,0.5-0.3,0.7c0,0-0.1,0.1-0.1,0.1c-0.2,0.3-0.4,0.6-0.7,1c0,0-0.1,0.1-0.1,0.1c-0.2,0.2-0.4,0.4-0.5,0.6
									c0,0-0.1,0.1-0.1,0.1c-0.2,0.2-0.5,0.5-0.7,0.7c-0.1,0-0.1,0.1-0.1,0.1c-0.4,0.4-0.8,0.7-1.3,1.1c0,0-0.1,0.1-0.1,0.1
									c-0.5,0.4-1,0.7-1.5,1.1c0,0-0.1,0-0.1,0.1c-0.5,0.4-1.1,0.8-1.7,1.1c0,0,0,0,0,0c-0.6,0.4-1.2,0.7-1.8,1.1
									c-0.1,0.1-0.1,0.1-0.2,0.1c-0.9,0.6-1.8,1.1-2.8,1.6c0,0-0.1,0-0.1,0c-0.5,0.3-1,0.6-1.5,0.8l0,0c-1.1,0.6-2.1,1.2-3.2,1.8
									c-0.4,0.2-0.7,0.4-1.1,0.6c-0.1,0.1-0.2,0.1-0.3,0.2c-0.4,0.2-0.8,0.4-1.2,0.7c-0.1,0-0.1,0.1-0.2,0.1
									c-0.4,0.2-0.8,0.5-1.2,0.7L474,439.2c-10.6,6.2-17.1,10.4-22.4,12.1c-0.9,0.3-1.7,0.5-2.5,0.7l0,10.7
									c0.8-0.1,1.7-0.4,2.5-0.7c5.3-1.7,11.9-6,22.4-12.1l177.3-103c0.4-0.3,0.9-0.5,1.3-0.8v0c1.9-1.1,4.1-2.3,6.3-3.5
									c0.2-0.1,0.5-0.2,0.7-0.4c0.3-0.2,0.5-0.3,0.8-0.5c0.3-0.2,0.6-0.4,0.9-0.5c0.1-0.1,0.3-0.2,0.4-0.3
									c0.4-0.2,0.7-0.4,1.1-0.7c0.1-0.1,0.1-0.1,0.2-0.1c0,0,0,0,0.1-0.1c0.6-0.4,1.1-0.7,1.7-1c0.1,0,0.1-0.1,0.2-0.1
									c0.6-0.4,1.1-0.7,1.7-1.1c0,0,0.1-0.1,0.2-0.1c0.5-0.4,1-0.7,1.4-1.1c0.1,0,0.1-0.1,0.2-0.1c0.4-0.3,0.9-0.7,1.3-1.1
									c0,0,0,0,0.1-0.1c0,0,0,0,0.1-0.1c0.2-0.2,0.5-0.5,0.7-0.7c0,0,0.1-0.1,0.1-0.1c0.2-0.2,0.4-0.4,0.5-0.6
									c0,0,0.1-0.1,0.1-0.1c0,0,0.1-0.1,0.1-0.1c0.1-0.1,0.1-0.2,0.2-0.2c0.1-0.1,0.1-0.2,0.2-0.3c0.1-0.1,0.1-0.2,0.1-0.2
									c0-0.1,0.1-0.1,0.1-0.2v0l0,0v0c0,0,0,0,0-0.1c0.1-0.2,0.3-0.5,0.4-0.7c0,0,0,0,0,0c0,0,0-0.1,0-0.1c0-0.2,0.1-0.3,0.1-0.5
									c0,0,0-0.1,0-0.1c0,0,0-0.1,0-0.1c0-0.1,0-0.3,0-0.4c0-0.1,0-0.1,0-0.2c0,0,0-0.1,0-0.1c0-3.6,0-7.1,0-10.7
									C672.7,319.9,672.7,320,672.7,320z"/>
							</g>
							<g>
								<path class="st2" d="M447.8,452.2c-0.3,0-0.6,0-0.9,0.1c-0.3,0-0.5,0-0.8,0c-0.3,0-0.5,0-0.8,0c-0.2,0-0.5-0.1-0.8-0.1
									c-0.3,0-0.6-0.1-0.8-0.2c-0.4-0.1-0.7-0.1-1.1-0.3c-0.5-0.2-1-0.3-1.6-0.5c-1-0.4-2.1-0.9-3.2-1.6l-131.2-75.7
									c-3.3-1.9-5.2-3.2-5.2-4.7c0,3.6,0,7.1,0,10.7c0,1.6,1.9,2.9,5.2,4.8l131.1,75.7c1.1,0.6,2.2,1.2,3.2,1.6
									c0.5,0.2,1,0.4,1.6,0.5c0.3,0.1,0.7,0.2,1.1,0.3c0.3,0.1,0.5,0.1,0.8,0.1c0.3,0,0.5,0.1,0.8,0.1c0.2,0,0.5,0,0.8,0.1
									c0.3,0,0.5,0,0.8,0c0.3,0,0.6,0,0.9-0.1c0.4,0,0.8-0.1,1.2-0.2l0-10.7C448.6,452.1,448.2,452.1,447.8,452.2z"/>
							</g>
						</g>
					</g>
					<g>
						<g class="st1">
							<g>
								<g>
									<path class="st20" d="M456.8,411.3c-2.9-1.7-7.5-1.7-10.4,0l-9.9,5.9c-2.9,1.7-2.9,4.4,0,6c2.9,1.7,7.5,1.7,10.4,0l9.9-5.9
										C459.7,415.6,459.6,412.9,456.8,411.3L456.8,411.3z"/>
								</g>
							</g>
						</g>
					</g>
					<g>
						<g class="st1">
							<g>
								<g>
									<path class="st20" d="M480,398.4c-2.9-1.7-7.5-1.7-10.4,0l-9.9,5.9c-2.9,1.7-2.8,4.4,0,6c2.9,1.7,7.5,1.7,10.4,0l9.9-5.9
										C482.9,402.7,482.9,400,480,398.4L480,398.4z"/>
								</g>
							</g>
						</g>
					</g>
					<g>
						<g class="st1">
							<g>
								<g>
									<path class="st20" d="M595.1,289.4l-22.6-13c-2.5-1.5-6.6-1.5-9.1,0l-20,11.6c-2.5,1.5-2.5,3.9,0,5.3l22.6,13
										c2.5,1.5,6.6,1.5,9.1,0l20-11.6C597.7,293.3,597.6,290.9,595.1,289.4L595.1,289.4z"/>
								</g>
							</g>
						</g>
					</g>
					<g class="st1">
						<g>
							<path class="st2" d="M308.5,370.5l-0.4-142.1l-7.6-4.4l0.4,142c0,2.9,1,4.9,2.7,5.9c2.5,1.5,5,2.9,7.6,4.4
								C309.5,375.4,308.5,373.4,308.5,370.5z"/>
						</g>
						<g>
							<g>
								<path class="st19" d="M536.7,85.9c5-2.9,9.2-0.6,9.2,5.2l0.4,142.1c0,5.8-4.1,12.9-9.1,15.8L317.7,375.7
									c-5,2.9-9.1,0.6-9.2-5.2l-0.4-142.1c0-5.8,4.1-12.9,9.1-15.8L536.7,85.9z"/>
							</g>
						</g>
						<g>
							<path class="st20" d="M538.3,85.2c0.2-0.1,0.4-0.1,0.6-0.2c0.1,0,0.3-0.1,0.4-0.1c0.1,0,0.3-0.1,0.4-0.1
								c0.2,0,0.3-0.1,0.5-0.1c0.1,0,0.2,0,0.3,0c0.2,0,0.4,0,0.6,0c0,0,0.1,0,0.1,0c0.3,0,0.5,0,0.7,0.1c0,0,0.1,0,0.2,0
								c0.2,0,0.3,0.1,0.5,0.1c0,0,0.1,0,0.2,0c0.2,0.1,0.4,0.2,0.6,0.3l-2.5-1.5c0,0-0.1,0-0.1-0.1c0,0-0.1,0-0.1-0.1l-4.8-2.8
								c0,0,0,0-0.1,0c-0.1-0.1-0.3-0.2-0.5-0.2c0,0-0.1,0-0.1,0c0,0-0.1,0-0.1-0.1c-0.1,0-0.1-0.1-0.2-0.1c-0.1,0-0.2-0.1-0.3-0.1
								c0,0-0.1,0-0.1,0c0,0-0.1,0-0.1,0c-0.2,0-0.3,0-0.5-0.1c0,0,0,0,0,0c-0.1,0-0.1,0-0.1,0c-0.2,0-0.3,0-0.5,0
								c-0.1,0-0.1,0-0.2,0c-0.1,0-0.2,0-0.3,0c-0.1,0-0.2,0-0.3,0c-0.1,0-0.1,0-0.2,0.1c-0.1,0-0.2,0-0.3,0.1c-0.1,0-0.1,0-0.2,0
								c-0.1,0-0.1,0.1-0.2,0.1c-0.2,0-0.4,0.1-0.6,0.2c-0.1,0-0.2,0.1-0.2,0.1c0,0-0.1,0-0.1,0.1c-0.4,0.2-0.7,0.3-1.2,0.6
								L309.6,208.3c-0.3,0.2-0.6,0.4-0.9,0.6c-0.1,0.1-0.2,0.1-0.3,0.2c-0.2,0.1-0.4,0.3-0.6,0.4c-0.1,0.1-0.2,0.2-0.3,0.3
								c-0.2,0.1-0.3,0.3-0.5,0.4c-0.1,0.1-0.2,0.2-0.3,0.3c-0.1,0.1-0.1,0.1-0.2,0.2c-0.1,0.1-0.1,0.1-0.2,0.2
								c-0.2,0.2-0.4,0.4-0.6,0.6c-0.1,0.1-0.2,0.2-0.2,0.2c-0.1,0.1-0.1,0.1-0.2,0.2c-0.1,0.1-0.2,0.3-0.3,0.4
								c-0.1,0.1-0.2,0.2-0.2,0.3c-0.1,0.1-0.1,0.2-0.2,0.2c-0.1,0.1-0.2,0.2-0.2,0.3c0,0.1-0.1,0.2-0.2,0.2
								c-0.1,0.1-0.2,0.3-0.3,0.4c0,0.1-0.1,0.2-0.2,0.3c0,0,0,0.1-0.1,0.1c-0.2,0.2-0.3,0.5-0.5,0.8c0,0,0,0.1,0,0.1c0,0,0,0,0,0.1
								c-0.1,0.2-0.2,0.4-0.3,0.6c-0.1,0.1-0.1,0.2-0.1,0.3c-0.1,0.1-0.1,0.2-0.1,0.3c0,0.1-0.1,0.2-0.1,0.2
								c-0.1,0.2-0.2,0.4-0.3,0.7c0,0,0,0.1,0,0.1c0,0,0,0,0,0c-0.1,0.3-0.2,0.6-0.3,0.8c0,0,0,0.1-0.1,0.2c0,0.1-0.1,0.2-0.1,0.3
								c0,0.2-0.1,0.3-0.1,0.4c0,0.1-0.1,0.2-0.1,0.3c0,0.1-0.1,0.2-0.1,0.3c0,0.1-0.1,0.2-0.1,0.3c0,0.1-0.1,0.3-0.1,0.4
								c0,0.2-0.1,0.3-0.1,0.4c0,0.1,0,0.1,0,0.2c0,0.1,0,0.2-0.1,0.4c0,0.2-0.1,0.5-0.1,0.7c0,0.1,0,0.1,0,0.2c0,0.2,0,0.3-0.1,0.5
								c0,0.1,0,0.2,0,0.3c0,0.3,0,0.7,0,1l7.6,4.4c0-0.3,0-0.7,0.1-1c0-0.1,0-0.2,0-0.3c0-0.2,0-0.4,0.1-0.6c0-0.3,0.1-0.5,0.1-0.8
								c0-0.2,0.1-0.3,0.1-0.5c0-0.2,0.1-0.3,0.1-0.5c0-0.2,0.1-0.4,0.2-0.6c0-0.1,0.1-0.3,0.1-0.4c0.1-0.2,0.1-0.5,0.2-0.7
								c0-0.1,0.1-0.2,0.1-0.3c0.1-0.3,0.3-0.7,0.4-1c0,0,0-0.1,0-0.1c0.1-0.3,0.3-0.6,0.4-0.9c0-0.1,0.1-0.2,0.1-0.2
								c0.1-0.3,0.3-0.5,0.4-0.8c0-0.1,0.1-0.1,0.1-0.2c0.2-0.3,0.4-0.6,0.6-0.9c0-0.1,0.1-0.2,0.2-0.3c0.1-0.2,0.3-0.5,0.5-0.7
								c0.1-0.1,0.1-0.2,0.2-0.3c0.1-0.2,0.3-0.4,0.4-0.5c0.1-0.1,0.2-0.3,0.3-0.4c0.1-0.1,0.2-0.3,0.3-0.4c0.2-0.2,0.4-0.5,0.6-0.7
								c0.1-0.1,0.2-0.3,0.4-0.4c0.1-0.1,0.2-0.2,0.3-0.3c0.2-0.2,0.3-0.3,0.5-0.5c0.1-0.1,0.2-0.2,0.3-0.2c0.2-0.2,0.4-0.3,0.6-0.4
								c0.1-0.1,0.2-0.1,0.3-0.2c0.3-0.2,0.6-0.4,0.9-0.6L536.7,85.9c0.4-0.2,0.8-0.4,1.2-0.6C538,85.3,538.1,85.3,538.3,85.2z"/>
						</g>
					</g>
					<g>
						<g class="st1">
							<g>
								<g>
									<path class="st21" d="M533.2,95.2L322.6,216.8c-4.6,2.6-8.3,9.1-8.2,14.3l0.4,128.9c0,5.3,3.7,7.4,8.3,4.7l210.7-121.6
										c4.6-2.6,8.3-9.1,8.3-14.3l-0.4-128.9C541.5,94.6,537.8,92.5,533.2,95.2L533.2,95.2z"/>
								</g>
							</g>
						</g>
					</g>
					<g>
						<g class="st1">
							<g>
								<g>
									<path class="st20" d="M553.7,265.9c-3.1-1.8-8.2-1.8-11.3,0L357.2,373.5c-3.1,1.8-3.1,4.7,0,6.6c3.1,1.8,8.2,1.8,11.3,0
										l185.2-107.6C556.9,270.7,556.8,267.7,553.7,265.9L553.7,265.9z"/>
								</g>
							</g>
						</g>
					</g>
					<g>
						<g class="st1">
							<g>
								<g>
									<path class="st20" d="M613.4,299.2c-3.1-1.8-8.2-1.8-11.3,0L416.9,406.8c-3.1,1.8-3.1,4.8,0,6.6c3.1,1.8,8.2,1.8,11.3,0
										l185.2-107.6C616.6,303.9,616.6,301,613.4,299.2L613.4,299.2z"/>
								</g>
							</g>
						</g>
					</g>
					<g>
						<g class="st1">
							<g>
								<g>
									<path class="st20" d="M539.6,296.2c-3.1-1.8-8.2-1.8-11.3,0l-152.8,88.2c-3.1,1.8-3.1,4.8,0,6.6c3.1,1.8,8.2,1.8,11.3,0
										l152.8-88.2C542.8,301,542.7,298,539.6,296.2L539.6,296.2z"/>
								</g>
							</g>
						</g>
					</g>
					<g>
						<g class="st1">
							<g>
								<g>
									<path class="st20" d="M601.5,327.7c-3.1-1.8-8.2-1.8-11.3,0l-107.6,62c-3.1,1.8-3.1,4.7,0,6.6c3.1,1.8,8.2,1.8,11.3,0
										l107.6-62C604.7,332.5,604.6,329.6,601.5,327.7L601.5,327.7z"/>
								</g>
							</g>
						</g>
					</g>
					<g>
						<g class="st1">
							<g>
								<g>
									<path class="st20" d="M558.5,309c-3.1-1.8-8.2-1.8-11.3,0l-152,87.9c-3.1,1.8-3.1,4.7,0,6.6c3.2,1.8,8.2,1.8,11.3,0
										l152-87.9C561.6,313.8,561.6,310.8,558.5,309L558.5,309z"/>
								</g>
							</g>
						</g>
					</g>
					<g>
						<g class="st1">
							<g>
								<g>
									<path class="st20" d="M626,314.1c-3.1-1.8-8.2-1.8-11.2,0l-8.6,5c-3.1,1.8-3.1,4.7,0,6.5c3.1,1.8,8.2,1.8,11.3,0l8.6-5
										C629.2,318.8,629.1,315.9,626,314.1L626,314.1z"/>
								</g>
							</g>
						</g>
					</g>
					<g>
						<path class="st22" d="M533.3,95.1l-92.5,53.4l-36.1,169.1l129.1-74.5c4.6-2.6,8.3-9,8.3-14.3l-0.4-128.9
							C541.6,94.6,537.8,92.5,533.3,95.1z"/>
					</g>
				</g>
			</g>
		</g>
	</g>
	<g>
		<g class="st0">
			<path class="st2" d="M664.2,609.4C664.2,609.4,664.2,609.4,664.2,609.4l-6.7-1.3l-5-1c0,0,0,0,0,0c-0.1,0-0.2,0-0.4-0.1
				c0,0-0.1,0-0.1,0l-54-6.7c-0.1,0-0.1,0-0.2,0c-0.1,0-0.1,0-0.2,0c0,0-0.1,0-0.1,0c0,0,0,0-0.1,0c-0.1,0-0.2,0-0.4,0l0,0l0,0
				c-0.2,0-0.3,0-0.5,0h0c-0.1,0-0.1,0-0.2,0c-0.1,0-0.2,0-0.3,0c0,0,0,0,0,0c-0.1,0-0.3,0-0.4,0c-0.1,0-0.1,0-0.2,0c0,0,0,0,0,0
				c-0.2,0-0.5,0-0.7,0.1c0,0,0,0-0.1,0c0,0-0.1,0-0.1,0c-0.3,0-0.6,0.1-0.9,0.2c-0.4,0.1-0.7,0.1-1.1,0.2c-0.1,0-0.2,0-0.2,0.1
				c-0.3,0.1-0.7,0.2-1,0.3c0,0,0,0-0.1,0c-0.1,0-0.2,0.1-0.2,0.1c-0.1,0-0.3,0.1-0.4,0.2l0,0l-2.9-0.6l-7.1-0.9
				c9.7-9.1,6.3-17.5-8.8-20.4c0.1,0,0.1,0,0.2,0l-11.7-2.3c-0.1,0-0.2,0-0.3,0c-0.4-0.1-0.9-0.2-1.4-0.2c-0.1,0-0.2,0-0.4-0.1
				c-0.2,0-0.4-0.1-0.7-0.1c-0.3,0-0.7-0.1-1-0.1c-0.5-0.1-1-0.1-1.6-0.2c0,0,0,0-0.1,0c-0.1,0-0.2,0-0.3,0c-0.4,0-0.9-0.1-1.3-0.1
				c-0.2,0-0.3,0-0.5,0c-0.2,0-0.3,0-0.5,0c-0.2,0-0.4,0-0.6,0c-0.2,0-0.4,0-0.5,0c-0.5,0-0.9,0-1.4-0.1c-0.1,0-0.2,0-0.3,0
				c0,0,0,0-0.1,0c-0.5,0-1.1,0-1.7,0c-0.2,0-0.3,0-0.5,0c-0.3,0-0.7,0-1,0c-0.1,0-0.2,0-0.2,0c-0.3,0-0.5,0-0.8,0c-0.3,0-0.7,0-1,0
				c-0.3,0-0.6,0-0.8,0c-0.2,0-0.5,0-0.7,0c-0.1,0-0.2,0-0.3,0c-0.4,0-0.8,0-1.2,0.1c-0.3,0-0.6,0-0.9,0.1c-0.4,0-0.8,0.1-1.3,0.1
				c-0.2,0-0.4,0-0.6,0.1c-0.1,0-0.1,0-0.2,0c-0.8,0.1-1.7,0.2-2.5,0.3c-0.2,0-0.4,0.1-0.6,0.1c-0.7,0.1-1.4,0.2-2,0.3
				c-0.1,0-0.3,0-0.4,0c-0.1,0-0.3,0-0.4,0.1c-0.2,0-0.5,0.1-0.7,0.1c-0.4,0.1-0.8,0.1-1.2,0.2c-0.3,0-0.5,0.1-0.7,0.1
				c-0.4,0.1-0.8,0.1-1.3,0.2c-0.2,0-0.4,0.1-0.6,0.1c-0.6,0.1-1.2,0.2-1.9,0.3c-0.8,0.2-1.6,0.3-2.4,0.5c-0.2,0.1-0.5,0.1-0.7,0.2
				c-0.5,0.1-1.1,0.2-1.7,0.4c-0.3,0.1-0.6,0.1-0.8,0.2c-0.5,0.1-1.1,0.3-1.7,0.4c-0.2,0.1-0.5,0.1-0.7,0.2
				c-0.8,0.2-1.6,0.4-2.3,0.6c-0.1,0-0.1,0-0.2,0.1c-0.7,0.2-1.4,0.4-2.1,0.6c-0.3,0.1-0.5,0.2-0.8,0.2c-0.5,0.2-1.1,0.3-1.6,0.5
				c-0.2,0.1-0.5,0.2-0.8,0.3c-0.2,0.1-0.4,0.1-0.5,0.2c-0.2,0.1-0.5,0.2-0.7,0.2c-0.5,0.2-0.9,0.3-1.4,0.5
				c-0.4,0.1-0.8,0.3-1.1,0.4c-0.5,0.2-0.9,0.3-1.4,0.5c-0.2,0.1-0.4,0.1-0.6,0.2c-0.2,0.1-0.4,0.2-0.7,0.3
				c-0.3,0.1-0.5,0.2-0.8,0.3c-0.5,0.2-0.9,0.4-1.4,0.6c-0.2,0.1-0.5,0.2-0.8,0.3c-0.1,0-0.1,0.1-0.2,0.1c-0.1,0.1-0.3,0.1-0.4,0.2
				c-0.8,0.4-1.6,0.7-2.4,1.1c-0.1,0.1-0.3,0.1-0.4,0.2c-0.1,0.1-0.2,0.1-0.3,0.2c-0.7,0.4-1.5,0.7-2.2,1.1c-0.1,0-0.2,0.1-0.3,0.1
				c0,0,0,0,0,0c-0.8,0.4-1.5,0.8-2.3,1.3c0,0-0.1,0.1-0.1,0.1c-0.2,0.1-0.4,0.2-0.5,0.3c-0.5,0.3-1,0.6-1.5,0.9
				c-0.1,0.1-0.2,0.1-0.3,0.2c-0.4,0.2-0.8,0.5-1.2,0.8c-0.3,0.2-0.6,0.4-0.9,0.6c-0.1,0-0.1,0.1-0.2,0.1c-0.6,0.4-1.2,0.8-1.7,1.3
				c0,0,0,0,0,0c0,0-0.1,0.1-0.1,0.1c-0.5,0.4-0.9,0.8-1.4,1.2c-0.1,0.1-0.2,0.1-0.2,0.2c-0.1,0.1-0.1,0.1-0.1,0.1
				c-0.5,0.5-1,0.9-1.4,1.3c0,0,0,0,0,0c-0.3,0.3-0.6,0.6-0.8,0.8c-0.1,0.1-0.1,0.1-0.2,0.2c-0.2,0.2-0.4,0.4-0.5,0.6
				c0,0,0,0.1-0.1,0.1c-0.1,0.2-0.2,0.3-0.4,0.5c-0.1,0.2-0.3,0.3-0.4,0.5c-0.1,0.2-0.2,0.3-0.3,0.5c-0.1,0.1-0.2,0.3-0.3,0.4
				c0,0,0,0.1,0,0.1c-0.2,0.4-0.4,0.7-0.6,1.1c0,0.1,0,0.1-0.1,0.2c-0.1,0.3-0.3,0.6-0.4,0.9c0,0,0,0.1-0.1,0.1c0,0.1,0,0.2-0.1,0.2
				c-0.1,0.2-0.1,0.5-0.2,0.7c0,0.1-0.1,0.3-0.1,0.4c0,0.3-0.1,0.5-0.1,0.8c0,0.1,0,0.2,0,0.2c0,0.3,0,0.7,0,1c0,0.1,0,0.2,0,0.3
				c0,0.2,0,0.5,0.1,0.7c0,0.1,0,0.2,0.1,0.3c0,0.2,0.1,0.4,0.2,0.7c0,0.1,0.1,0.2,0.1,0.3c0.1,0.3,0.3,0.6,0.4,0.9
				c0,0.1,0.1,0.1,0.1,0.2c0.1,0.2,0.3,0.5,0.4,0.7c0.1,0.1,0.1,0.2,0.2,0.3c0.1,0.2,0.3,0.4,0.5,0.6c0.1,0.1,0.2,0.2,0.2,0.3
				c0.2,0.2,0.5,0.5,0.7,0.7c0,0,0.1,0.1,0.1,0.1c0.3,0.2,0.6,0.5,1,0.7c0.1,0.1,0.2,0.1,0.3,0.2c0.3,0.2,0.5,0.3,0.8,0.5
				c0.1,0.1,0.3,0.1,0.4,0.2c0.3,0.2,0.6,0.3,0.9,0.5c0.1,0.1,0.2,0.1,0.3,0.2c0.4,0.2,0.9,0.4,1.4,0.6c0.1,0,0.2,0.1,0.3,0.1
				c0.4,0.1,0.8,0.3,1.2,0.4c0.2,0.1,0.3,0.1,0.5,0.2c0.4,0.1,0.8,0.2,1.2,0.3c0.2,0,0.3,0.1,0.5,0.1c0.6,0.1,1.2,0.3,1.8,0.4
				l11.7,2.3c0,0,0,0,0,0c1.2,0.2,2.4,0.4,3.7,0.6c9,1.1,19.9,0.4,30.7-1.7c11.4-2.2,22.7-6,31.6-10.8l9.8,1.2c0,0,0,0,0,0
				c0,0-0.1,0.1-0.1,0.1c0,0,0,0,0,0c0,0,0,0,0,0.1c-0.1,0.1-0.1,0.1-0.1,0.2c0,0,0,0,0,0.1c0,0,0,0,0,0c0,0.1-0.1,0.2-0.1,0.3
				c0,0,0,0,0,0c0,0.1,0,0.2,0,0.3c0,0,0,0,0,0.1c0,0.1,0,0.1,0.1,0.2c0,0,0,0.1,0,0.1c0,0.1,0.1,0.1,0.1,0.2c0,0,0,0,0,0.1
				c0.1,0.1,0.2,0.1,0.3,0.2c0,0,0,0,0.1,0c0.1,0,0.2,0.1,0.3,0.1c0,0,0.1,0,0.1,0.1c0.1,0,0.2,0.1,0.3,0.1c0,0,0.1,0,0.1,0
				c0.2,0,0.3,0.1,0.5,0.1l11.7,2.3c0,0,0,0,0,0c0.2,0,0.4,0.1,0.6,0.1l54,6.7c1.3,0.2,2.9,0.1,4.5-0.3c2-0.4,4.1-1.1,5.5-2.1
				l7.7-5.2C667,611.5,666.7,609.9,664.2,609.4z"/>
		</g>
		<g>
			<g>
				<g class="st1">
					<g class="st1">
						<defs>
							<path id="SVGID_43_" class="st1" d="M667.1,576.7l11.7,6.8c-0.2-0.1-0.3-0.2-0.5-0.2l-11.7-6.8
								C666.8,576.5,667,576.6,667.1,576.7z"/>
						</defs>
						<clipPath id="SVGID_14_">
							<use xlink:href="#SVGID_43_"  style="overflow:visible;"/>
						</clipPath>
						<g style="clip-path:url(#SVGID_14_);enable-background:new    ;">
							<g>
								<path class="st24" d="M678.3,583.2l-11.7-6.8c0,0,0.1,0,0.1,0.1l11.7,6.8C678.4,583.3,678.4,583.2,678.3,583.2L678.3,583.2z
									"/>
							</g>
							<g>
								<path class="st25" d="M678.5,583.3l-11.7-6.8c0.1,0,0.2,0.1,0.4,0.2l11.7,6.8C678.7,583.4,678.6,583.3,678.5,583.3
									L678.5,583.3z"/>
							</g>
							<g>
								<path class="st26" d="M678.8,583.5l-11.7-6.8c0,0,0,0,0,0L678.8,583.5C678.9,583.5,678.9,583.5,678.8,583.5L678.8,583.5z"/>
							</g>
						</g>
					</g>
					<g>
						<g>
							<polygon class="st27" points="624.4,563.4 612.6,556.6 666.6,576.4 678.3,583.2 							"/>
						</g>
					</g>
					<g>
						<g>
							<path class="st20" d="M619.8,564.2c1.6-0.9,3.2-1.2,4.5-0.7l54,19.8c3,1.1,3.5,6,1,10.9l-7.7,15.2c-1.4,2.8-3.4,5-5.5,6.1
								c-1.6,0.9-3.2,1.2-4.5,0.7l-54-19.8c-3-1.1-3.5-6-1-10.9l7.7-15.2C615.8,567.5,617.8,565.4,619.8,564.2z"/>
						</g>
					</g>
					<g>
						<path class="st14" d="M615.5,568.5c0-0.1,0.1-0.1,0.1-0.2c0.2-0.3,0.4-0.5,0.6-0.8c0-0.1,0.1-0.1,0.1-0.1
							c0.2-0.2,0.3-0.4,0.5-0.6c0.1-0.2,0.3-0.3,0.4-0.4c0.1-0.1,0.2-0.2,0.3-0.3c0.3-0.3,0.7-0.6,1-0.9c0.1-0.1,0.2-0.1,0.2-0.2
							c0.4-0.3,0.7-0.5,1.1-0.7c0.3-0.2,0.6-0.3,0.9-0.4c0.1,0,0.1-0.1,0.2-0.1c0.2-0.1,0.5-0.2,0.7-0.3c0.1,0,0.1,0,0.2,0
							c0.1,0,0.3-0.1,0.4-0.1c0.1,0,0.2,0,0.3,0c0.1,0,0.2,0,0.2,0c0.2,0,0.3,0,0.5,0c0,0,0.1,0,0.1,0c0.2,0,0.3,0,0.4,0.1
							c0,0,0.1,0,0.1,0c0.1,0,0.3,0.1,0.4,0.1l-11.7-6.8c-0.1,0-0.1-0.1-0.2-0.1c-0.1,0-0.1,0-0.2,0c0,0-0.1,0-0.1,0c0,0,0,0-0.1,0
							c-0.1,0-0.2,0-0.4,0c0,0,0,0,0,0h0c-0.1,0-0.3,0-0.5,0c0,0,0,0,0,0c-0.1,0-0.2,0-0.2,0c-0.1,0-0.2,0-0.3,0c0,0,0,0,0,0
							c-0.1,0-0.2,0-0.4,0.1c-0.1,0-0.1,0-0.2,0l0,0c-0.2,0.1-0.5,0.1-0.7,0.2c0,0-0.1,0-0.1,0c0,0-0.1,0-0.1,0.1
							c-0.3,0.1-0.6,0.3-0.9,0.4c-0.4,0.2-0.7,0.5-1.1,0.7c-0.1,0.1-0.2,0.1-0.2,0.2c-0.4,0.3-0.7,0.6-1,0.9c0,0,0,0,0,0
							c-0.1,0.1-0.2,0.2-0.2,0.3c-0.1,0.1-0.3,0.3-0.4,0.5c0,0-0.1,0.1-0.1,0.1c-0.1,0.1-0.3,0.3-0.4,0.5c0,0.1-0.1,0.1-0.1,0.2
							c0,0,0,0,0,0.1c-0.2,0.2-0.3,0.4-0.5,0.6c0,0-0.1,0.1-0.1,0.1c0,0.1-0.1,0.1-0.1,0.2c-0.1,0.1-0.2,0.2-0.2,0.3
							c-0.1,0.1-0.2,0.3-0.3,0.4c0,0,0,0.1,0,0.1c0,0,0,0,0,0.1c-0.1,0.2-0.2,0.4-0.3,0.6c-0.1,0.1-0.1,0.2-0.2,0.3l-7.7,15.2
							c0,0.1-0.1,0.2-0.1,0.3c-0.1,0.1-0.1,0.3-0.2,0.4c0,0.1-0.1,0.1-0.1,0.2c0,0,0,0,0,0c-0.1,0.2-0.2,0.4-0.3,0.6
							c0,0,0,0.1,0,0.1c0,0.1-0.1,0.2-0.1,0.3c0,0.1-0.1,0.2-0.1,0.3c0,0.1,0,0.1-0.1,0.2c0,0.1-0.1,0.2-0.1,0.3
							c0,0.1,0,0.1-0.1,0.2c0,0.1,0,0.1-0.1,0.2c0,0.1-0.1,0.3-0.1,0.4c0,0,0,0.1,0,0.1c0,0.1,0,0.1,0,0.2c0,0.2-0.1,0.4-0.1,0.7
							c0,0.1,0,0.1,0,0.2c0,0,0,0.1,0,0.1c0,0.3-0.1,0.6-0.1,0.8c0,0,0,0,0,0.1c0,0.3,0,0.6,0,0.9c0,0.1,0,0.2,0,0.2
							c0,0.2,0,0.4,0.1,0.6c0,0.1,0,0.2,0,0.2c0,0.2,0.1,0.4,0.1,0.6c0,0.1,0,0.1,0,0.2c0.1,0.2,0.2,0.5,0.3,0.7c0,0,0,0.1,0.1,0.1
							c0.1,0.2,0.2,0.3,0.3,0.5c0,0.1,0.1,0.1,0.1,0.2c0.1,0.1,0.2,0.2,0.3,0.3c0.1,0,0.1,0.1,0.1,0.1c0.2,0.1,0.3,0.3,0.5,0.4
							l11.7,6.8c-0.2-0.1-0.3-0.2-0.5-0.4c0,0-0.1-0.1-0.1-0.1c-0.1-0.1-0.2-0.2-0.3-0.3c0-0.1-0.1-0.1-0.1-0.2
							c-0.1-0.1-0.2-0.3-0.3-0.5c0,0,0-0.1-0.1-0.1c-0.1-0.2-0.2-0.4-0.3-0.7c0-0.1,0-0.1-0.1-0.2c0-0.2-0.1-0.4-0.1-0.6
							c0-0.1,0-0.2,0-0.2c0-0.2-0.1-0.4-0.1-0.6c0-0.1,0-0.1,0-0.2c0-0.3,0-0.6,0-0.9c0,0,0,0,0-0.1c0-0.3,0-0.6,0.1-0.8
							c0-0.1,0-0.2,0-0.3c0-0.2,0.1-0.4,0.1-0.7c0-0.1,0-0.2,0.1-0.3c0-0.1,0.1-0.3,0.1-0.4c0-0.1,0.1-0.3,0.1-0.4
							c0-0.1,0.1-0.2,0.1-0.3c0-0.2,0.1-0.3,0.2-0.5c0-0.1,0.1-0.2,0.1-0.2c0.1-0.3,0.2-0.5,0.3-0.8c0,0,0,0,0,0
							c0.1-0.3,0.3-0.6,0.4-0.9l7.7-15.2c0.2-0.3,0.3-0.6,0.5-0.9c0-0.1,0.1-0.1,0.1-0.2C615.1,568.9,615.3,568.7,615.5,568.5z"/>
					</g>
				</g>
			</g>
			<g>
				<g class="st1">
					<g>
						<g>
							<polygon class="st28" points="594.2,557.9 582.5,551.1 602.1,558.3 613.9,565.1 							"/>
						</g>
					</g>
					<g class="st1">
						<defs>
							<path id="SVGID_45_" class="st1" d="M569.3,498.2c3.9,2.3,7.8,4.6,11.7,6.8c14.5,8.4,15.9,34.7,2.6,61l-11.7-6.8
								C585.2,532.9,583.8,506.7,569.3,498.2z"/>
						</defs>
						<clipPath id="SVGID_16_">
							<use xlink:href="#SVGID_45_"  style="overflow:visible;"/>
						</clipPath>
						<g style="clip-path:url(#SVGID_16_);enable-background:new    ;">
							<g>
								<path class="st28" d="M583.7,566.1l-11.7-6.8c0.3-0.5,0.5-1.1,0.8-1.6l11.7,6.8C584.2,565,583.9,565.5,583.7,566.1
									L583.7,566.1z"/>
							</g>
							<g>
								<path class="st30" d="M584.5,564.5l-11.7-6.8c0.6-1.2,1.1-2.4,1.6-3.5l11.7,6.8C585.6,562.1,585,563.3,584.5,564.5
									L584.5,564.5z"/>
							</g>
							<g>
								<path class="st31" d="M586.1,560.9l-11.7-6.8c0.5-1.2,1-2.4,1.5-3.6l11.7,6.8C587.1,558.5,586.6,559.7,586.1,560.9
									L586.1,560.9z"/>
							</g>
							<g>
								<path class="st32" d="M587.6,557.3l-11.7-6.8c0.5-1.3,0.9-2.5,1.4-3.8l11.7,6.8C588.5,554.8,588.1,556,587.6,557.3
									L587.6,557.3z"/>
							</g>
							<g>
								<path class="st33" d="M589,553.5l-11.7-6.8c0.4-1.4,0.9-2.8,1.2-4.1l11.7,6.8C589.8,550.8,589.4,552.1,589,553.5L589,553.5z
									"/>
							</g>
							<g>
								<path class="st34" d="M590.2,549.4l-11.7-6.8c0.4-1.6,0.8-3.1,1.1-4.7l11.7,6.8C591,546.3,590.6,547.8,590.2,549.4
									L590.2,549.4z"/>
							</g>
							<g>
								<path class="st35" d="M591.3,544.7l-11.7-6.8c0.4-2,0.7-3.9,1-5.8l11.7,6.8C592.1,540.8,591.8,542.7,591.3,544.7
									L591.3,544.7z"/>
							</g>
							<g>
								<path class="st36" d="M592.3,538.9l-11.7-6.8c2-15.5-1.9-28.4-11.3-33.9l11.7,6.8C590.4,510.5,594.3,523.4,592.3,538.9
									L592.3,538.9z"/>
							</g>
						</g>
					</g>
					<g class="st1">
						<defs>
							<path id="SVGID_47_" class="st1" d="M523.4,604c-3.9-2.3-7.8-4.5-11.7-6.8c1,0.6,2,1,3.1,1.5c7.6,2.8,16.7,1,25.8-4.3
								c11.7-6.8,23.4-19.3,31.4-35.1l11.7,6.8c-8,15.9-19.6,28.4-31.3,35.1c-9.1,5.2-18.2,7-25.8,4.3
								C525.4,605.1,524.4,604.6,523.4,604z"/>
						</defs>
						<clipPath id="SVGID_18_">
							<use xlink:href="#SVGID_47_"  style="overflow:visible;"/>
						</clipPath>
						<g style="clip-path:url(#SVGID_18_);enable-background:new    ;">
							<g>
								<path class="st31" d="M523.4,604l-11.7-6.8c0.1,0,0.2,0.1,0.2,0.1l11.7,6.8C523.6,604.1,523.5,604.1,523.4,604L523.4,604z"
									/>
							</g>
							<g>
								<path class="st30" d="M523.6,604.2l-11.7-6.8c0.7,0.4,1.3,0.7,2,1l11.7,6.8C525,604.9,524.3,604.5,523.6,604.2L523.6,604.2z
									"/>
							</g>
							<g>
								<path class="st28" d="M525.7,605.2l-11.7-6.8c0.3,0.1,0.6,0.2,0.8,0.3c0.4,0.2,0.9,0.3,1.3,0.4l11.7,6.8
									c-0.5-0.1-0.9-0.3-1.3-0.4C526.3,605.4,526,605.3,525.7,605.2L525.7,605.2z"/>
							</g>
							<g>
								<path class="st38" d="M527.9,605.9l-11.7-6.8c0.7,0.2,1.5,0.4,2.3,0.5l11.7,6.8C529.4,606.3,528.6,606.1,527.9,605.9
									L527.9,605.9z"/>
							</g>
							<g>
								<path class="st39" d="M530.2,606.5l-11.7-6.8c0.8,0.1,1.6,0.2,2.4,0.3l11.7,6.8C531.8,606.7,531,606.6,530.2,606.5
									L530.2,606.5z"/>
							</g>
							<g>
								<path class="st26" d="M532.6,606.7l-11.7-6.8c0.9,0.1,1.8,0.1,2.7,0l11.7,6.8C534.4,606.8,533.5,606.8,532.6,606.7
									L532.6,606.7z"/>
							</g>
							<g>
								<path class="st25" d="M535.3,606.8l-11.7-6.8c1,0,2-0.1,3-0.3l11.7,6.8C537.3,606.6,536.3,606.7,535.3,606.8L535.3,606.8z"
									/>
							</g>
							<g>
								<path class="st40" d="M538.3,606.5l-11.7-6.8c1.2-0.2,2.4-0.4,3.6-0.8l11.7,6.8C540.7,606,539.5,606.3,538.3,606.5
									L538.3,606.5z"/>
							</g>
							<g>
								<path class="st41" d="M541.9,605.7l-11.7-6.8c1.6-0.4,3.1-1,4.7-1.6l11.7,6.8C545,604.7,543.4,605.3,541.9,605.7
									L541.9,605.7z"/>
							</g>
							<g>
								<path class="st42" d="M546.6,604.1l-11.7-6.8c1.9-0.8,3.8-1.7,5.7-2.9c4.7-2.7,9.3-6.3,13.7-10.6l11.7,6.8
									c-4.4,4.3-9,7.9-13.7,10.6C550.4,602.3,548.5,603.3,546.6,604.1L546.6,604.1z"/>
							</g>
							<g>
								<path class="st41" d="M566,590.6l-11.7-6.8c1.5-1.5,3-3,4.4-4.7l11.7,6.8C569,587.5,567.5,589.1,566,590.6L566,590.6z"/>
							</g>
							<g>
								<path class="st40" d="M570.4,585.9l-11.7-6.8c1.1-1.3,2.2-2.6,3.2-4l11.7,6.8C572.6,583.3,571.5,584.6,570.4,585.9
									L570.4,585.9z"/>
							</g>
							<g>
								<path class="st25" d="M573.7,581.9l-11.7-6.8c0.9-1.2,1.8-2.4,2.7-3.6l11.7,6.8C575.5,579.6,574.6,580.8,573.7,581.9
									L573.7,581.9z"/>
							</g>
							<g>
								<path class="st26" d="M576.4,578.3l-11.7-6.8c0.8-1.1,1.6-2.3,2.3-3.5l11.7,6.8C577.9,576,577.1,577.2,576.4,578.3
									L576.4,578.3z"/>
							</g>
							<g>
								<path class="st39" d="M578.7,574.8L567,568c0.7-1.1,1.4-2.3,2.1-3.4l11.7,6.8C580.1,572.6,579.4,573.7,578.7,574.8
									L578.7,574.8z"/>
							</g>
							<g>
								<path class="st38" d="M580.8,571.4l-11.7-6.8c0.7-1.1,1.3-2.3,1.9-3.4l11.7,6.8C582.1,569.2,581.4,570.3,580.8,571.4
									L580.8,571.4z"/>
							</g>
							<g>
								<path class="st28" d="M582.7,568l-11.7-6.8c0.3-0.6,0.7-1.3,1-1.9l11.7,6.8C583.4,566.7,583,567.4,582.7,568L582.7,568z"/>
							</g>
						</g>
					</g>
					<g>
						<path class="st4" d="M555.9,497c0.2-0.1,0.5-0.2,0.7-0.3c0.4-0.2,0.8-0.4,1.2-0.6c0.2-0.1,0.5-0.2,0.7-0.3
							c0.3-0.1,0.6-0.2,0.9-0.4c0.7-0.3,1.3-0.5,2-0.8c0.2-0.1,0.4-0.1,0.6-0.2c0.8-0.3,1.6-0.5,2.5-0.8c0.3-0.1,0.6-0.1,0.9-0.2
							c0.4-0.1,0.8-0.2,1.2-0.3c0.3-0.1,0.6-0.1,0.9-0.2c0.4-0.1,0.8-0.1,1.1-0.2c0.3-0.1,0.7-0.1,1-0.1c0.3,0,0.5-0.1,0.8-0.1
							c0.3,0,0.7-0.1,1.1-0.1c0.3,0,0.5,0,0.8-0.1c0.4,0,0.9,0,1.3,0c0.1,0,0.3,0,0.4,0c0.6,0,1.1,0,1.7,0.1c0.1,0,0.2,0,0.3,0
							c0.5,0,0.9,0.1,1.4,0.1c0.2,0,0.4,0.1,0.5,0.1c0.4,0.1,0.8,0.1,1.1,0.2c0.2,0,0.3,0.1,0.5,0.1c0.4,0.1,0.8,0.2,1.3,0.3
							c0.1,0,0.2,0.1,0.3,0.1c0.6,0.1,1.1,0.3,1.6,0.5c0.5,0.2,0.9,0.4,1.3,0.6c0.6,0.3,1.2,0.5,1.7,0.9c0.2,0.1,0.4,0.2,0.6,0.3
							l-11.7-6.8c-0.1,0-0.2-0.1-0.3-0.1c-0.4-0.3-0.9-0.5-1.4-0.7c-0.1,0-0.2-0.1-0.3-0.2c-0.2-0.1-0.4-0.2-0.7-0.3
							c-0.3-0.1-0.7-0.3-1-0.4c-0.5-0.2-1-0.4-1.6-0.5c0,0,0,0-0.1,0c-0.1,0-0.2-0.1-0.3-0.1c-0.4-0.1-0.9-0.2-1.3-0.3
							c-0.2,0-0.3-0.1-0.5-0.1c-0.2,0-0.3-0.1-0.5-0.1c-0.2,0-0.4-0.1-0.6-0.1c-0.2,0-0.4-0.1-0.5-0.1c-0.4-0.1-0.9-0.1-1.4-0.1
							c-0.1,0-0.2,0-0.3,0c0,0,0,0-0.1,0c-0.5,0-1.1,0-1.7,0c-0.2,0-0.3,0-0.5,0c-0.3,0-0.7,0-1,0c-0.1,0-0.2,0-0.3,0
							c-0.3,0-0.5,0-0.8,0.1c-0.4,0-0.7,0.1-1,0.1c-0.3,0-0.5,0.1-0.8,0.1c-0.2,0-0.4,0.1-0.7,0.1c-0.1,0-0.2,0-0.4,0.1
							c-0.4,0.1-0.8,0.1-1.2,0.2c-0.3,0.1-0.6,0.1-0.9,0.2c-0.4,0.1-0.8,0.2-1.3,0.3c-0.2,0-0.4,0.1-0.6,0.1c-0.1,0-0.1,0-0.2,0
							c-0.8,0.2-1.6,0.5-2.5,0.8c-0.2,0.1-0.4,0.1-0.6,0.2c-0.7,0.2-1.4,0.5-2,0.8c-0.1,0.1-0.3,0.1-0.4,0.2
							c-0.1,0.1-0.3,0.1-0.4,0.2c-0.2,0.1-0.5,0.2-0.7,0.3c-0.4,0.2-0.8,0.3-1.2,0.5c-0.2,0.1-0.5,0.2-0.7,0.4
							c-0.4,0.2-0.8,0.4-1.3,0.6c-0.2,0.1-0.4,0.2-0.6,0.3c-0.6,0.3-1.2,0.7-1.9,1c-0.8,0.5-1.6,0.9-2.4,1.5
							c-0.2,0.2-0.5,0.3-0.7,0.5c-0.6,0.4-1.1,0.7-1.7,1.1c-0.3,0.2-0.6,0.4-0.8,0.6c-0.6,0.4-1.1,0.8-1.7,1.2
							c-0.2,0.2-0.5,0.4-0.7,0.5c-0.8,0.6-1.6,1.2-2.3,1.9c-0.1,0.1-0.2,0.1-0.2,0.2c-0.7,0.6-1.4,1.2-2.1,1.8
							c-0.2,0.2-0.5,0.5-0.7,0.7c-0.5,0.5-1.1,1-1.6,1.5c-0.3,0.3-0.5,0.5-0.8,0.8c-0.2,0.2-0.4,0.3-0.5,0.5
							c-0.2,0.2-0.5,0.5-0.7,0.7c-0.5,0.5-1,1-1.4,1.5c-0.4,0.4-0.8,0.8-1.2,1.2c-0.5,0.5-0.9,1-1.4,1.5c-0.2,0.2-0.4,0.4-0.6,0.6
							c-0.2,0.3-0.4,0.5-0.7,0.8c-0.3,0.3-0.5,0.6-0.8,1c-0.5,0.6-0.9,1.1-1.4,1.7c-0.3,0.3-0.5,0.6-0.8,0.9
							c-0.1,0.1-0.1,0.2-0.2,0.3c-0.1,0.2-0.2,0.3-0.4,0.5c-0.8,1-1.6,2.1-2.4,3.2c-0.1,0.2-0.3,0.4-0.4,0.6
							c-0.1,0.2-0.2,0.3-0.3,0.5c-0.7,1.1-1.4,2.1-2.2,3.2c-0.1,0.1-0.2,0.3-0.3,0.4c0,0,0,0.1-0.1,0.1c-0.8,1.2-1.5,2.4-2.3,3.7
							c0,0.1-0.1,0.2-0.2,0.3c-0.2,0.3-0.3,0.6-0.5,0.9c-0.5,0.9-1,1.7-1.5,2.6c-0.1,0.2-0.2,0.3-0.3,0.5c-0.4,0.7-0.8,1.5-1.2,2.3
							c-0.3,0.6-0.6,1.3-0.9,1.9c-0.1,0.1-0.1,0.3-0.2,0.4c-0.6,1.2-1.2,2.5-1.7,3.7c0,0,0,0.1,0,0.1c-0.1,0.1-0.1,0.2-0.2,0.4
							c-0.5,1.1-0.9,2.3-1.4,3.4c-0.1,0.2-0.1,0.3-0.2,0.5c-0.1,0.1-0.1,0.3-0.2,0.4c-0.5,1.3-1,2.6-1.4,4c0,0,0,0.1,0,0.1
							c-0.3,0.8-0.5,1.7-0.8,2.5c-0.1,0.2-0.1,0.4-0.2,0.6c-0.2,0.6-0.4,1.2-0.5,1.8c0,0.1,0,0.2-0.1,0.3c-0.1,0.5-0.2,0.9-0.4,1.4
							c-0.1,0.5-0.2,0.9-0.4,1.4c-0.1,0.5-0.2,0.9-0.3,1.4c-0.1,0.4-0.2,0.8-0.3,1.1c0,0.1,0,0.2-0.1,0.2c-0.2,1.1-0.4,2.1-0.6,3.2
							c0,0.2-0.1,0.3-0.1,0.5c-0.1,0.9-0.3,1.7-0.4,2.6c0,0.1,0,0.3,0,0.4c0,0.2,0,0.5-0.1,0.7c-0.1,0.7-0.2,1.4-0.2,2.1
							c0,0.4-0.1,0.7-0.1,1.1c-0.1,0.8-0.1,1.5-0.1,2.3c0,0.2,0,0.5,0,0.7c0,1,0,1.9,0,2.9c0,0.3,0,0.6,0,0.9c0,0.7,0.1,1.4,0.1,2
							c0,0.3,0,0.7,0.1,1c0,0.7,0.1,1.3,0.2,2c0,0.3,0.1,0.5,0.1,0.8c0.1,0.9,0.2,1.8,0.4,2.6c0,0.2,0.1,0.3,0.1,0.5
							c0.1,0.7,0.3,1.4,0.4,2.1c0.1,0.3,0.1,0.5,0.2,0.8c0.1,0.6,0.3,1.1,0.5,1.7c0.1,0.3,0.2,0.5,0.2,0.8c0.2,0.7,0.5,1.3,0.7,2
							c0,0.1,0.1,0.2,0.1,0.3c0.3,0.7,0.6,1.5,1,2.1c0.1,0.2,0.2,0.4,0.3,0.6c0.3,0.5,0.5,1,0.8,1.5c0.1,0.2,0.3,0.4,0.4,0.6
							c0.3,0.5,0.6,1,1,1.4c0.1,0.2,0.2,0.3,0.3,0.5c0.4,0.6,0.9,1.2,1.4,1.7c0.1,0.1,0.2,0.2,0.3,0.3c0.4,0.4,0.8,0.8,1.2,1.2
							c0.2,0.2,0.3,0.3,0.5,0.5c0.4,0.3,0.8,0.7,1.2,1c0.2,0.1,0.3,0.3,0.5,0.4c0.6,0.4,1.2,0.8,1.8,1.2l11.7,6.8
							c-0.6-0.4-1.2-0.8-1.8-1.2c-0.2-0.1-0.3-0.3-0.5-0.4c-0.4-0.3-0.8-0.6-1.2-1c-0.2-0.2-0.4-0.3-0.5-0.5
							c-0.4-0.4-0.8-0.8-1.2-1.2c-0.1-0.1-0.2-0.2-0.3-0.3c-0.5-0.5-1-1.1-1.4-1.7c-0.1-0.1-0.2-0.3-0.3-0.5
							c-0.3-0.5-0.6-0.9-0.9-1.4c-0.1-0.2-0.3-0.4-0.4-0.6c-0.3-0.5-0.6-1-0.8-1.5c-0.1-0.2-0.2-0.4-0.3-0.6c-0.3-0.7-0.7-1.4-1-2.1
							c0-0.1-0.1-0.2-0.1-0.3c-0.3-0.7-0.5-1.3-0.7-2c-0.1-0.3-0.1-0.5-0.2-0.8c-0.2-0.6-0.3-1.1-0.5-1.7c-0.1-0.3-0.1-0.5-0.2-0.8
							c-0.2-0.7-0.3-1.4-0.5-2.1c0-0.2-0.1-0.3-0.1-0.5c-0.1-0.9-0.3-1.7-0.4-2.6c0-0.3-0.1-0.5-0.1-0.8c-0.1-0.7-0.1-1.3-0.2-2
							c0-0.3,0-0.6-0.1-1c0-0.7-0.1-1.4-0.1-2.1c0-0.3,0-0.6,0-0.8c0-0.9,0-1.9,0-2.9c0-0.2,0-0.5,0-0.7c0-0.8,0.1-1.6,0.1-2.3
							c0-0.4,0.1-0.7,0.1-1.1c0.1-0.7,0.1-1.4,0.2-2.1c0.1-0.4,0.1-0.7,0.1-1.1c0.1-0.8,0.2-1.7,0.4-2.5c0-0.2,0.1-0.4,0.1-0.6
							c0.2-1,0.4-2.1,0.6-3.1c0.1-0.5,0.2-1,0.3-1.5c0.1-0.4,0.2-0.8,0.3-1.3c0.1-0.5,0.3-1,0.4-1.5c0.1-0.4,0.2-0.8,0.3-1.3
							c0.2-0.7,0.4-1.5,0.6-2.2c0-0.1,0.1-0.3,0.1-0.4c0.3-0.9,0.5-1.8,0.8-2.6c0.4-1.3,0.9-2.6,1.4-4c0.1-0.3,0.2-0.6,0.4-0.9
							c0.5-1.2,0.9-2.4,1.4-3.5c0.1-0.1,0.1-0.2,0.1-0.3c0.5-1.2,1.1-2.5,1.7-3.7c0.4-0.8,0.7-1.5,1.1-2.3c0.5-0.9,1-1.9,1.5-2.8
							c0.5-0.9,1-1.8,1.5-2.7c0.2-0.4,0.4-0.7,0.6-1.1c0.7-1.3,1.5-2.5,2.3-3.7c0.1-0.2,0.2-0.3,0.3-0.5c0.7-1.1,1.4-2.2,2.2-3.3
							c0.2-0.4,0.5-0.7,0.7-1.1c0.8-1.1,1.5-2.1,2.3-3.1c0.2-0.3,0.4-0.6,0.7-0.9c0.2-0.3,0.5-0.6,0.7-0.9c0.5-0.6,0.9-1.2,1.4-1.8
							c0.3-0.3,0.5-0.7,0.8-1c0.4-0.5,0.8-0.9,1.2-1.4c0.5-0.5,0.9-1.1,1.4-1.6c0.4-0.4,0.7-0.8,1.1-1.2c0.5-0.5,1-1,1.5-1.5
							c0.4-0.4,0.8-0.8,1.2-1.2c0.3-0.3,0.6-0.5,0.8-0.8c0.5-0.5,1-1,1.6-1.4c0.2-0.2,0.5-0.5,0.8-0.7c0.7-0.6,1.4-1.2,2.1-1.8
							c0.1-0.1,0.1-0.1,0.2-0.2c0.8-0.6,1.6-1.3,2.3-1.9c0.2-0.2,0.5-0.4,0.7-0.5c0.6-0.4,1.1-0.8,1.7-1.2c0.3-0.2,0.5-0.4,0.8-0.6
							c0.6-0.4,1.1-0.8,1.7-1.1c0.2-0.2,0.5-0.3,0.7-0.5c0.8-0.5,1.6-1,2.4-1.5c0.6-0.4,1.3-0.7,1.9-1c0.2-0.1,0.4-0.2,0.6-0.3
							C555,497.5,555.5,497.2,555.9,497z"/>
					</g>
					<g>
						<g>
							<path class="st20" d="M594.2,557.9l19.6,7.2l-10.3,20.4l-19.6-7.2c-8.9,14.1-20.2,25.2-31.6,31.8
								c-10.8,6.2-21.7,8.4-30.7,5.1c-20.6-7.6-23.7-40.9-6.9-74.3c9.5-18.8,23.3-33.7,37.3-41.8c10.8-6.2,21.7-8.4,30.7-5.1
								C601.3,500.7,605.7,528.2,594.2,557.9z M583.7,566.1c14.2-28.1,11.6-56.1-5.8-62.5c-7.6-2.8-16.7-1-25.8,4.3
								c-11.7,6.8-23.3,19.3-31.3,35.1c-14.2,28.1-11.6,56.1,5.7,62.5c7.6,2.8,16.7,1,25.8-4.3C564.1,594.5,575.7,581.9,583.7,566.1
								L583.7,566.1z"/>
						</g>
					</g>
				</g>
			</g>
			<g class="st43">
				<g>
					<path class="st3" d="M552.2,507.9c9.1-5.2,18.2-7,25.8-4.3c17.4,6.4,19.9,34.3,5.8,62.5c-8,15.9-19.6,28.4-31.3,35.1
						c-9.1,5.2-18.2,7-25.8,4.3c-17.4-6.4-19.9-34.3-5.7-62.5C528.9,527.2,540.5,514.6,552.2,507.9z"/>
				</g>
			</g>
		</g>
	</g>
	<g>
		<g class="st0">
			<g>
				<path class="st2" d="M835.9,453c0.1,0,0.1,0,0.1,0c-3-0.1-6.1-0.3-9.1-0.4c-0.1,0-0.1,0-0.2,0c-0.3,0-0.5,0-0.8,0c0,0,0,0,0,0
					c-0.2,0-0.5,0-0.7,0c0,0-0.1,0-0.1,0c-0.1,0-0.2,0-0.2,0c-0.2,0-0.4,0-0.6,0c-0.1,0-0.2,0-0.3,0c-0.1,0-0.1,0-0.2,0
					c-0.2,0-0.3,0-0.5,0c-0.1,0-0.1,0-0.2,0c-0.2,0-0.5,0-0.7,0.1c0,0,0,0-0.1,0c-0.1,0-0.1,0-0.2,0c-0.2,0-0.4,0.1-0.6,0.1
					c-0.1,0-0.2,0-0.2,0c-0.1,0-0.1,0-0.2,0c-0.1,0-0.3,0.1-0.4,0.1c0,0-0.1,0-0.1,0c-0.2,0-0.5,0.1-0.7,0.1c0,0,0,0,0,0
					c-0.1,0-0.1,0-0.2,0c-0.2,0-0.4,0.1-0.5,0.1c-0.1,0-0.2,0-0.3,0.1c-0.1,0-0.1,0-0.2,0c-0.1,0-0.1,0-0.2,0.1
					c-0.1,0-0.2,0.1-0.3,0.1c-0.1,0-0.3,0.1-0.4,0.1c-0.1,0-0.2,0.1-0.3,0.1c0,0-0.1,0-0.1,0c-0.1,0-0.1,0-0.2,0.1
					c-0.1,0.1-0.3,0.1-0.4,0.2c-0.1,0-0.2,0.1-0.3,0.1c-0.1,0.1-0.3,0.1-0.4,0.2c-0.1,0-0.1,0-0.2,0.1c0,0-0.1,0-0.1,0.1
					c-0.2,0.1-0.3,0.2-0.5,0.3c-0.1,0-0.1,0.1-0.2,0.1c-0.2,0.1-0.4,0.3-0.6,0.4c-0.2,0.1-0.4,0.3-0.5,0.4c0,0-0.1,0.1-0.1,0.1
					c-0.2,0.2-0.3,0.3-0.5,0.5c0,0,0,0,0,0c-0.1,0.1-0.2,0.3-0.4,0.5c0,0-0.1,0.1-0.1,0.1c-0.1,0.2-0.2,0.3-0.3,0.5c0,0,0,0.1,0,0.1
					c-0.1,0.1-0.2,0.3-0.2,0.5c0,0,0,0.1-0.1,0.1c0,0,0,0.1,0,0.1c0,0.1-0.1,0.2-0.1,0.3c0,0.1-0.1,0.2-0.1,0.3
					c0,0.1-0.1,0.2-0.1,0.4c0,0.1-0.1,0.2-0.1,0.3c0,0,0,0,0,0c0,0.2-0.1,0.4-0.1,0.6c0,0,0,0.1,0,0.1c0,0.1,0,0.3,0,0.4
					c0,0,0,0.1,0,0.1c0,0.1,0,0.1,0,0.2c0,0.2,0,0.3,0,0.5c0,0.1,0,0.1,0,0.2c0,0,0,0,0,0.1c0,0,0,0.1,0,0.2c0,0.2,0,0.5,0.1,0.7
					c0,0,0,0.1,0,0.1c0,0,0,0.1,0,0.1c0.1,0.3,0.1,0.6,0.2,0.8c0,0,0,0.1,0,0.1c0,0,0,0,0,0c0.1,0.3,0.2,0.6,0.3,0.9
					c0,0,0,0.1,0,0.1c0,0.1,0.1,0.1,0.1,0.2c0.1,0.3,0.2,0.5,0.4,0.8c0,0.1,0,0.1,0.1,0.2c0,0,0,0,0,0.1c0.2,0.3,0.4,0.7,0.6,1
					c0,0,0,0.1,0,0.1c0,0,0.1,0.1,0.1,0.1c0.2,0.3,0.5,0.7,0.7,1.1c0,0,0,0.1,0.1,0.1c0,0,0,0,0,0c0.1,0.1,0.1,0.2,0.2,0.2
					c0.1,0.1,0.1,0.2,0.2,0.3c-9.8-4.6-20.3-7.2-29.1-7.6c0.1,0,0.1,0,0.2,0c-4.3-0.2-8.6-0.4-12.8-0.5c-0.1,0-0.2,0-0.2,0
					c-0.4,0-0.7,0-1.1,0c0,0,0,0-0.1,0c-0.3,0-0.7,0-1,0c-0.1,0-0.1,0-0.2,0c-0.1,0-0.2,0-0.4,0c-0.3,0-0.6,0-0.9,0
					c-0.1,0-0.2,0-0.4,0c-0.1,0-0.2,0-0.3,0c-0.2,0-0.4,0-0.7,0c-0.1,0-0.2,0-0.2,0c-0.3,0-0.7,0.1-1,0.1c0,0-0.1,0-0.1,0
					c-0.1,0-0.2,0-0.3,0c-0.3,0-0.5,0.1-0.8,0.1c-0.1,0-0.2,0-0.3,0c-0.1,0-0.2,0-0.2,0c-0.2,0-0.4,0.1-0.6,0.1c-0.1,0-0.1,0-0.2,0
					c-0.3,0.1-0.6,0.1-0.9,0.2c0,0-0.1,0-0.1,0c-0.1,0-0.2,0-0.3,0.1c-0.2,0.1-0.5,0.1-0.7,0.2c-0.1,0-0.2,0.1-0.4,0.1
					c-0.1,0-0.2,0.1-0.3,0.1c-0.1,0-0.2,0.1-0.3,0.1c-0.1,0-0.3,0.1-0.4,0.1c-0.2,0.1-0.4,0.1-0.6,0.2c-0.1,0-0.3,0.1-0.4,0.1
					c0,0-0.1,0-0.1,0c-0.1,0-0.2,0.1-0.3,0.1c-0.2,0.1-0.4,0.2-0.6,0.2c-0.1,0.1-0.3,0.1-0.4,0.2c-0.2,0.1-0.4,0.2-0.6,0.3
					c-0.1,0-0.1,0.1-0.2,0.1c-0.1,0-0.1,0.1-0.2,0.1c-0.2,0.1-0.5,0.3-0.7,0.4c-0.1,0.1-0.2,0.1-0.3,0.2c-0.3,0.2-0.6,0.4-0.9,0.6
					c-0.3,0.2-0.5,0.4-0.8,0.6c0,0.1-0.1,0.1-0.2,0.2c-0.2,0.2-0.4,0.4-0.7,0.7c0,0,0,0-0.1,0.1c-0.2,0.2-0.4,0.4-0.5,0.6
					c0,0.1-0.1,0.1-0.1,0.2c-0.2,0.2-0.3,0.5-0.5,0.7c0,0,0,0.1-0.1,0.1c-0.1,0.2-0.2,0.4-0.4,0.7c0,0,0,0.1-0.1,0.2
					c0,0,0,0.1,0,0.1c-0.1,0.1-0.1,0.3-0.2,0.4c0,0.1-0.1,0.3-0.1,0.4c-0.1,0.2-0.1,0.3-0.1,0.5c0,0.1-0.1,0.3-0.1,0.4
					c0,0,0,0.1,0,0.1c-0.1,0.3-0.1,0.5-0.1,0.8c0,0.1,0,0.1,0,0.2c0,0.2,0,0.4,0,0.6c0,0.1,0,0.1,0,0.2c0,0.1,0,0.2,0,0.3
					c0,0.2,0,0.5,0,0.7c0,0.1,0,0.1,0,0.2c0,0,0,0.1,0,0.1c0,0.1,0,0.1,0,0.2c0,0.3,0.1,0.7,0.1,1c0,0.1,0,0.1,0,0.2
					c0,0.1,0,0.1,0,0.2c0.1,0.4,0.2,0.8,0.3,1.2c0,0,0,0.1,0,0.1c0,0,0,0,0,0c0.1,0.4,0.3,0.9,0.5,1.3c0,0,0,0.1,0,0.1
					c0,0.1,0.1,0.2,0.1,0.2c0.2,0.4,0.3,0.8,0.5,1.1c0,0.1,0.1,0.1,0.1,0.2c0,0,0,0.1,0,0.1c0.3,0.5,0.5,1,0.8,1.5
					c0,0,0,0.1,0.1,0.1c0,0.1,0.1,0.1,0.1,0.2c0.3,0.5,0.6,1,1,1.5c0,0.1,0.1,0.1,0.1,0.2c0,0,0,0,0,0.1c0.1,0.1,0.2,0.2,0.3,0.3
					c0.2,0.2,0.4,0.5,0.6,0.7c0.1,0.1,0.2,0.3,0.3,0.4c0.1,0.1,0.2,0.3,0.3,0.4c0.1,0.1,0.1,0.2,0.2,0.2c0.1,0.2,0.3,0.4,0.5,0.5
					c0.2,0.2,0.4,0.4,0.5,0.6c0.2,0.2,0.3,0.4,0.5,0.5c0.1,0.1,0.2,0.2,0.3,0.3c0.1,0.1,0.1,0.1,0.2,0.2c0.3,0.3,0.5,0.5,0.8,0.8
					c0.2,0.1,0.3,0.3,0.5,0.5c0.3,0.3,0.6,0.6,0.9,0.8c0.1,0.1,0.2,0.2,0.3,0.3c0,0,0.1,0.1,0.1,0.1c0.1,0.1,0.2,0.2,0.3,0.2
					c0.3,0.3,0.6,0.5,0.9,0.8c0.1,0.1,0.2,0.2,0.4,0.3c0.4,0.3,0.7,0.6,1.1,0.8c0.1,0.1,0.1,0.1,0.2,0.2c0.4,0.3,0.7,0.5,1.1,0.8
					c0,0,0.1,0.1,0.1,0.1c0.3,0.2,0.6,0.4,0.9,0.7c0.2,0.2,0.4,0.3,0.7,0.5c0.3,0.2,0.7,0.5,1,0.7c0.2,0.1,0.4,0.3,0.7,0.4
					c0.4,0.2,0.8,0.5,1.2,0.7c0.2,0.1,0.4,0.2,0.6,0.3c0.6,0.4,1.2,0.7,1.8,1.1l12.8,0.6l33.2-25c0,0,0,0,0.1,0.1
					c0.1,0,0.1,0.1,0.2,0.2c0.2,0.2,0.4,0.4,0.7,0.6c0.1,0.1,0.2,0.1,0.3,0.2c0.2,0.2,0.5,0.4,0.8,0.6c0,0,0.1,0.1,0.1,0.1
					c0.3,0.2,0.5,0.4,0.8,0.6c0,0,0.1,0.1,0.1,0.1c0.2,0.2,0.4,0.3,0.7,0.5c0.1,0.1,0.3,0.2,0.5,0.3c0.2,0.2,0.5,0.3,0.7,0.5
					c0.2,0.1,0.3,0.2,0.5,0.3c0.3,0.2,0.5,0.3,0.8,0.5c0.1,0.1,0.3,0.2,0.4,0.2c0.4,0.2,0.9,0.5,1.3,0.8l9.1,0.4l24.7-18.6
					C852.6,455.9,843.5,453.3,835.9,453z M784.6,461.4c0.2,0,0.5,0,0.7,0c-0.4,0-0.7,0-1.1,0c0.1,0,0.2,0,0.3,0
					C784.5,461.4,784.5,461.4,784.6,461.4z M783.4,461.4c0.1,0,0.2,0,0.3,0c-0.3,0-0.7,0-1,0c0.1,0,0.2,0,0.3,0
					C783.1,461.4,783.2,461.4,783.4,461.4z M782.1,461.4C782.1,461.4,782.2,461.4,782.1,461.4c-0.3,0-0.7,0-1.1,0.1
					c0.2,0,0.4,0,0.7,0C781.9,461.4,782,461.4,782.1,461.4z M780.6,461.5c0,0,0.1,0,0.1,0c-0.4,0-0.9,0.1-1.3,0.1c0,0,0.1,0,0.1,0
					C779.8,461.5,780.2,461.5,780.6,461.5z M778.3,461.7c0.2,0,0.4-0.1,0.7-0.1c-0.4,0-0.7,0.1-1.1,0.1c0,0,0,0,0.1,0
					C778.1,461.7,778.2,461.7,778.3,461.7z M777.1,461.9c0.1,0,0.2,0,0.3-0.1c-0.3,0-0.6,0.1-0.9,0.1c0.1,0,0.2,0,0.3-0.1
					C777,461.9,777.1,461.9,777.1,461.9z M775.6,462.2c0.1,0,0.2,0,0.3-0.1c0.1,0,0.2,0,0.3,0c-0.3,0.1-0.6,0.1-0.8,0.2
					C775.4,462.2,775.5,462.2,775.6,462.2z M774.5,462.4c0.1,0,0.2-0.1,0.4-0.1h0c-0.3,0.1-0.7,0.2-1,0.3l0,0
					C774.1,462.6,774.3,462.5,774.5,462.4z M772.9,462.9c0.2-0.1,0.4-0.1,0.6-0.2c0,0,0,0,0.1,0c-0.3,0.1-0.6,0.2-0.9,0.3
					C772.7,463,772.8,463,772.9,462.9z M772,463.2c0.1,0,0.1,0,0.2-0.1c-0.2,0.1-0.5,0.2-0.7,0.3C771.7,463.4,771.9,463.3,772,463.2
					z M771,463.7C771,463.7,771.1,463.7,771,463.7c-0.2,0.1-0.4,0.2-0.6,0.3c0,0,0,0,0.1,0C770.7,463.9,770.8,463.8,771,463.7z
					 M769.6,464.4c-0.1,0.1-0.2,0.1-0.3,0.2c0,0,0,0,0,0C769.5,464.5,769.6,464.4,769.6,464.4z M767.3,466.1
					C767.3,466.1,767.3,466.1,767.3,466.1c-0.2,0.2-0.5,0.4-0.7,0.7c0,0,0,0,0,0C766.8,466.5,767.1,466.3,767.3,466.1z M766.6,466.8
					C766.6,466.8,766.6,466.8,766.6,466.8c-0.2,0.2-0.4,0.4-0.5,0.6l0,0C766.2,467.3,766.4,467,766.6,466.8z M765.7,468
					c-0.1,0.1-0.1,0.2-0.2,0.3l0,0C765.5,468.2,765.6,468.1,765.7,468z M765.4,468.5C765.4,468.5,765.4,468.5,765.4,468.5
					c-0.1,0.2-0.3,0.4-0.4,0.7c0,0,0,0,0,0C765.1,468.9,765.3,468.7,765.4,468.5z M765,469.3c0,0.1,0,0.1-0.1,0.2
					C764.9,469.4,764.9,469.4,765,469.3L765,469.3z M764.2,472.1L764.2,472.1c0,0.2,0,0.5-0.1,0.7l0,0
					C764.1,472.6,764.2,472.4,764.2,472.1z M764.1,473.1C764.1,473.1,764.1,473.1,764.1,473.1c0,0.1,0,0.2,0,0.3
					C764.1,473.3,764.1,473.2,764.1,473.1z M764.2,474.1C764.1,474.1,764.2,474,764.2,474.1c0,0.1,0,0.2,0,0.3c0,0,0,0,0,0
					C764.2,474.3,764.2,474.2,764.2,474.1z M764.3,475.4c0,0.1,0,0.2,0.1,0.4c0,0,0,0,0,0C764.4,475.7,764.4,475.5,764.3,475.4z
					 M764.7,477C764.7,477,764.7,477.1,764.7,477L764.7,477C764.7,477.1,764.7,477,764.7,477z M765.2,478.4c0,0.1,0,0.1,0.1,0.1
					C765.3,478.5,765.3,478.5,765.2,478.4C765.2,478.4,765.2,478.4,765.2,478.4z M767.1,482C767.1,482,767.1,482,767.1,482
					L767.1,482C767.1,482,767.1,482,767.1,482z M768.1,483.5c0,0,0.1,0.1,0.1,0.1C768.2,483.6,768.1,483.6,768.1,483.5
					C768.1,483.5,768.1,483.5,768.1,483.5z M768.5,484.1C768.5,484.1,768.6,484.1,768.5,484.1C768.6,484.1,768.5,484.1,768.5,484.1
					C768.5,484.1,768.5,484.1,768.5,484.1z M769.5,485.3c0.2,0.2,0.3,0.4,0.5,0.6c0,0,0,0,0,0C769.8,485.7,769.7,485.5,769.5,485.3z
					 M773.2,489.2c0.1,0,0.1,0.1,0.1,0.1v0C773.3,489.3,773.3,489.2,773.2,489.2z M784,497.2c-0.1-0.1-0.2-0.1-0.2-0.1
					C783.8,497.1,783.9,497.1,784,497.2L784,497.2z M835.1,453c0.2,0,0.3,0,0.5,0c-0.2,0-0.5,0-0.7,0C834.9,453,835,453,835.1,453
					C835.1,453,835.1,453,835.1,453z M834.2,453c0.1,0,0.2,0,0.2,0c-0.2,0-0.5,0-0.7,0c0.1,0,0.1,0,0.2,0
					C834.1,453,834.1,453,834.2,453z M833.4,453C833.4,453,833.4,453,833.4,453c-0.2,0-0.5,0-0.7,0c0.1,0,0.3,0,0.5,0
					C833.2,453,833.3,453,833.4,453z M832.3,453C832.3,453,832.3,453,832.3,453c-0.2,0-0.6,0-0.9,0.1l0.1,0
					C831.7,453.1,832,453,832.3,453z M830.7,453.2c0.2,0,0.3,0,0.5-0.1c-0.3,0-0.5,0.1-0.7,0.1h0
					C830.5,453.2,830.6,453.2,830.7,453.2z M829.8,453.3c0.1,0,0.2,0,0.2,0c-0.2,0-0.4,0.1-0.6,0.1c0.1,0,0.1,0,0.2,0
					C829.7,453.3,829.8,453.3,829.8,453.3z M828.7,453.5c0.1,0,0.1,0,0.2,0c0.1,0,0.1,0,0.2,0c-0.2,0-0.4,0.1-0.6,0.1
					C828.6,453.6,828.7,453.6,828.7,453.5z M828,453.7c0.1,0,0.2,0,0.3-0.1c0,0,0,0,0,0c-0.2,0.1-0.5,0.1-0.7,0.2
					C827.7,453.8,827.8,453.8,828,453.7z M826.8,454.1c0.1,0,0.3-0.1,0.4-0.1c0,0,0,0,0.1,0c-0.2,0.1-0.4,0.1-0.6,0.2
					C826.7,454.1,826.8,454.1,826.8,454.1z M826.2,454.3c0,0,0.1,0,0.1-0.1c-0.2,0.1-0.3,0.1-0.5,0.2
					C826,454.4,826.1,454.3,826.2,454.3z M825.5,454.6L825.5,454.6c-0.1,0.1-0.3,0.1-0.4,0.2c0,0,0,0,0,0
					C825.2,454.7,825.4,454.7,825.5,454.6z M824.4,455.2c0,0-0.1,0-0.1,0.1C824.3,455.2,824.3,455.2,824.4,455.2
					C824.4,455.2,824.4,455.2,824.4,455.2z M822.9,456.3C822.9,456.3,822.9,456.3,822.9,456.3c-0.1,0.1-0.3,0.3-0.4,0.4
					C822.6,456.6,822.7,456.5,822.9,456.3z M821.1,458.8c0,0.1-0.1,0.1-0.1,0.2v0C821.1,458.9,821.1,458.8,821.1,458.8z
					 M820.9,459.5C820.9,459.5,820.8,459.6,820.9,459.5C820.8,459.6,820.8,459.6,820.9,459.5C820.8,459.6,820.9,459.5,820.9,459.5z
					 M820.6,460.6C820.6,460.6,820.6,460.6,820.6,460.6c0,0.2,0,0.3,0,0.5l0,0C820.6,460.9,820.6,460.8,820.6,460.6z M820.6,461.9
					c0,0.1,0,0.1,0,0.2C820.6,462.1,820.6,462,820.6,461.9C820.6,462,820.6,462,820.6,461.9z M820.7,462.9
					C820.7,462.9,820.8,462.9,820.7,462.9c0,0.1,0,0.2,0.1,0.3c0,0,0,0,0,0C820.8,463.1,820.8,463,820.7,462.9z M821,464
					C821,464,821,464,821,464C821,464,821,464,821,464C821,464.1,821,464,821,464z M823.4,468.7
					C823.4,468.7,823.4,468.7,823.4,468.7C823.4,468.7,823.4,468.7,823.4,468.7L823.4,468.7z M824.4,469.9
					C824.4,469.9,824.4,469.9,824.4,469.9c0.1,0.1,0.3,0.3,0.4,0.5v0C824.6,470.2,824.5,470,824.4,469.9z M829.5,474.8
					c0.2,0.1,0.4,0.3,0.5,0.4l0,0C829.9,475.1,829.7,475,829.5,474.8z M831.1,476C831.1,476,831.1,476,831.1,476L831.1,476
					C831.1,476,831.1,476,831.1,476z M834.2,478.1C834.2,478.1,834.2,478.1,834.2,478.1c0,0,0.1,0,0.1,0.1
					C834.3,478.2,834.3,478.1,834.2,478.1z"/>
			</g>
		</g>
		<g>
			<g>
				<g class="st1">
					<g>
						<path class="st17" d="M793.9,410.6c0-0.5,0.1-0.9,0.1-1.4c0-0.1,0-0.3,0.1-0.4c0-0.2,0.1-0.4,0.1-0.7c0-0.1,0.1-0.3,0.1-0.4
							c0-0.2,0.1-0.4,0.1-0.6c0-0.1,0-0.2,0.1-0.4c0.1-0.5,0.2-1.1,0.4-1.6c0-0.1,0.1-0.2,0.1-0.3c0.1-0.5,0.3-0.9,0.4-1.4
							c0,0,0-0.1,0-0.1c0.2-0.5,0.3-0.9,0.5-1.4c0-0.1,0.1-0.2,0.1-0.3c0.1-0.4,0.3-0.8,0.5-1.1c0-0.1,0.1-0.1,0.1-0.2
							c0.2-0.4,0.4-0.8,0.6-1.3c0-0.1,0.1-0.2,0.2-0.3c0.2-0.3,0.3-0.7,0.5-1c0.1-0.1,0.1-0.2,0.2-0.3c0.2-0.4,0.4-0.8,0.7-1.2
							c0-0.1,0.1-0.2,0.2-0.3c0.2-0.3,0.4-0.7,0.6-1c0.1-0.1,0.1-0.2,0.2-0.3c0.3-0.4,0.5-0.8,0.8-1.2c0-0.1,0.1-0.1,0.1-0.2
							c0.3-0.4,0.6-0.8,0.9-1.3c0,0,0.1-0.1,0.1-0.1c0.4-0.5,0.8-1,1.2-1.5c0.1-0.1,0.1-0.1,0.2-0.2c0.3-0.3,0.5-0.6,0.8-0.8
							c0,0,0,0,0.1-0.1c0.3-0.3,0.6-0.6,0.8-0.9c0.1-0.1,0.1-0.1,0.2-0.2c0.4-0.4,0.7-0.7,1.1-1c0,0,0.1-0.1,0.1-0.1
							c0.4-0.3,0.8-0.7,1.2-1c0.1-0.1,0.2-0.1,0.2-0.2c0.4-0.3,0.8-0.6,1.2-0.9c0.1-0.1,0.1-0.1,0.2-0.1c0.4-0.3,0.9-0.6,1.3-0.8
							c0.3-0.2,0.7-0.4,1-0.6c0.1,0,0.2-0.1,0.3-0.1c0.3-0.1,0.5-0.2,0.8-0.4c0.1,0,0.2-0.1,0.3-0.1c0.2-0.1,0.5-0.2,0.7-0.3
							c0.1,0,0.1,0,0.2-0.1c0.3-0.1,0.6-0.2,0.9-0.3c0.2,0,0.3-0.1,0.5-0.1c0.1,0,0.2,0,0.2-0.1c0.2-0.1,0.5-0.1,0.7-0.1
							c0.4-0.1,0.7-0.1,1.1-0.1c0.1,0,0.1,0,0.2,0c0.3,0,0.6,0,0.9,0c0.1,0,0.1,0,0.2,0c0.2,0,0.5,0,0.7,0.1c0.1,0,0.1,0,0.2,0
							c0.3,0,0.6,0.1,0.8,0.2c0,0,0,0,0.1,0c0.2,0.1,0.5,0.2,0.7,0.3c0.1,0,0.1,0.1,0.2,0.1c0.2,0.1,0.4,0.2,0.6,0.3
							c0.1,0,0.1,0.1,0.2,0.1l-9.1-5.3c0,0-0.1,0-0.1,0c0,0-0.1,0-0.1-0.1c-0.2-0.1-0.4-0.2-0.6-0.3c0,0-0.1,0-0.1-0.1
							c0,0-0.1,0-0.1,0c-0.2-0.1-0.5-0.2-0.7-0.3c0,0,0,0,0,0h0c-0.3-0.1-0.5-0.1-0.8-0.2c0,0-0.1,0-0.1,0c0,0-0.1,0-0.1,0
							c-0.2,0-0.5-0.1-0.7-0.1c0,0-0.1,0-0.1,0h0c-0.3,0-0.6,0-1,0c0,0-0.1,0-0.1,0l-0.1,0c-0.4,0-0.7,0.1-1.1,0.1h0
							c-0.2,0-0.5,0.1-0.7,0.1c-0.1,0-0.2,0-0.3,0.1c-0.1,0-0.3,0.1-0.4,0.1c0,0,0,0-0.1,0c-0.3,0.1-0.6,0.2-0.9,0.3
							c-0.1,0-0.1,0-0.2,0.1c-0.2,0.1-0.5,0.2-0.7,0.3c0,0-0.1,0-0.1,0c-0.1,0-0.1,0.1-0.2,0.1c-0.3,0.1-0.5,0.2-0.8,0.4
							c-0.1,0-0.2,0.1-0.3,0.1c-0.3,0.2-0.7,0.4-1,0.6c-0.4,0.2-0.9,0.5-1.3,0.8c-0.1,0-0.1,0.1-0.2,0.1c-0.4,0.3-0.8,0.6-1.2,0.9
							c-0.1,0.1-0.1,0.1-0.2,0.2c-0.4,0.3-0.8,0.6-1.2,1c0,0-0.1,0.1-0.1,0.1c-0.4,0.3-0.8,0.7-1.1,1.1c0,0-0.1,0.1-0.1,0.1
							c0,0,0,0-0.1,0.1c-0.3,0.3-0.6,0.6-0.8,0.9c0,0,0,0,0,0c-0.3,0.3-0.5,0.6-0.8,0.9c0,0-0.1,0-0.1,0.1c0,0-0.1,0.1-0.1,0.1
							c-0.4,0.5-0.8,1-1.2,1.5c0,0,0,0,0,0c0,0-0.1,0.1-0.1,0.1c-0.3,0.4-0.6,0.8-0.9,1.2c0,0-0.1,0.1-0.1,0.1c0,0,0,0,0,0
							c-0.3,0.4-0.6,0.8-0.8,1.3c0,0-0.1,0.1-0.1,0.1c0,0.1-0.1,0.1-0.1,0.2c-0.2,0.3-0.4,0.7-0.6,1c0,0.1-0.1,0.1-0.1,0.2
							c0,0,0,0,0,0.1c-0.2,0.4-0.4,0.8-0.7,1.2c0,0,0,0.1-0.1,0.1c0,0.1-0.1,0.1-0.1,0.2c-0.2,0.3-0.3,0.6-0.5,1
							c0,0.1-0.1,0.1-0.1,0.2c0,0,0,0.1-0.1,0.1c-0.2,0.4-0.4,0.8-0.6,1.2c0,0,0,0,0,0c0,0-0.1,0.1-0.1,0.1
							c-0.2,0.4-0.3,0.8-0.5,1.1c0,0.1,0,0.1-0.1,0.2c0,0.1,0,0.1-0.1,0.1c-0.2,0.5-0.3,0.9-0.5,1.4c0,0,0,0,0,0c0,0,0,0.1,0,0.1
							c-0.2,0.5-0.3,0.9-0.4,1.4c0,0.1,0,0.1,0,0.2c0,0,0,0.1,0,0.1c-0.2,0.5-0.3,1.1-0.4,1.7c0,0,0,0.1,0,0.1c0,0.1,0,0.1,0,0.2
							c0,0.2-0.1,0.4-0.1,0.6c0,0.1,0,0.3-0.1,0.4c0,0.2-0.1,0.5-0.1,0.7c0,0.1,0,0.2,0,0.3c0,0,0,0.1,0,0.1
							c-0.1,0.5-0.1,0.9-0.1,1.4c0,0.1,0,0.2,0,0.3c0,0.5,0,1,0,1.4c0,5.2,1.8,8.8,4.8,10.6l9.1,5.3c-3-1.7-4.8-5.4-4.8-10.5
							c0-0.5,0-1,0-1.4C793.9,410.8,793.9,410.7,793.9,410.6z"/>
					</g>
					<g>
						<g>
							<path class="st58" d="M810.2,384c9.1-5.2,16.5-1,16.5,9.4c0,10.4-7.3,23.2-16.4,28.4c-9.1,5.2-16.5,1-16.5-9.4
								C793.8,401.9,801.1,389.2,810.2,384z"/>
						</g>
					</g>
				</g>
			</g>
			<g>
				<g class="st1">
					<g>
						<g>
							<path class="st58" d="M810.2,437.4c17.2-9.9,31.3,3.2,31.3,29.4l-62.4,36C779.1,476.6,793,447.3,810.2,437.4z"/>
						</g>
					</g>
					<g>
						<path class="st17" d="M779.3,497.7c0-0.3,0.1-0.7,0.1-1c0-0.5,0.1-1,0.1-1.5c0-0.4,0.1-0.7,0.1-1.1c0.1-0.5,0.1-1,0.2-1.5
							c0.1-0.7,0.2-1.5,0.3-2.2c0-0.1,0-0.2,0-0.3c0.1-0.7,0.2-1.3,0.3-2c0-0.2,0.1-0.4,0.1-0.6c0.1-0.6,0.2-1.2,0.3-1.8
							c0-0.2,0.1-0.3,0.1-0.5c0.1-0.3,0.1-0.6,0.2-1c0.1-0.6,0.3-1.2,0.4-1.8c0.1-0.3,0.2-0.7,0.3-1c0.1-0.5,0.3-1.1,0.4-1.7
							c0.1-0.4,0.2-0.8,0.3-1.2c0.1-0.4,0.2-0.8,0.3-1.1c0.1-0.4,0.3-0.8,0.4-1.2c0.1-0.4,0.2-0.8,0.4-1.1c0.1-0.5,0.3-0.9,0.4-1.3
							c0.1-0.3,0.2-0.6,0.3-0.9c0.2-0.5,0.4-1,0.6-1.5c0.1-0.2,0.2-0.5,0.2-0.7c0.1-0.1,0.1-0.3,0.2-0.5c0.4-1,0.8-2,1.2-3
							c0.1-0.2,0.2-0.4,0.3-0.6c0.4-1,0.9-2,1.4-2.9c0.1-0.2,0.2-0.4,0.3-0.6c0.4-0.8,0.7-1.5,1.1-2.2c0.1-0.2,0.3-0.5,0.4-0.7
							c0.5-0.9,0.9-1.7,1.4-2.6c0-0.1,0.1-0.2,0.2-0.3c0.4-0.8,0.9-1.5,1.4-2.2c0.1-0.2,0.3-0.5,0.4-0.7c0.4-0.7,0.9-1.3,1.3-1.9
							c0.1-0.2,0.3-0.4,0.4-0.6c0.1-0.1,0.2-0.3,0.3-0.4c0.3-0.4,0.6-0.8,0.9-1.3c0.1-0.2,0.2-0.3,0.3-0.5c0.3-0.4,0.7-0.9,1-1.3
							c0.1-0.1,0.2-0.2,0.2-0.3c0.4-0.5,0.8-1,1.3-1.5c0.2-0.2,0.4-0.5,0.6-0.7c0.3-0.3,0.5-0.6,0.8-0.9c0.2-0.2,0.4-0.5,0.7-0.7
							c0.3-0.3,0.5-0.6,0.8-0.8c0.1-0.1,0.2-0.2,0.3-0.3c0.4-0.4,0.8-0.7,1.2-1.1c0.1-0.1,0.1-0.1,0.2-0.2c0.4-0.4,0.9-0.8,1.3-1.1
							c0.1-0.1,0.2-0.2,0.3-0.2c0.4-0.3,0.8-0.7,1.3-1c0,0,0.1-0.1,0.1-0.1c0.5-0.3,0.9-0.7,1.4-1c0.1-0.1,0.2-0.1,0.3-0.2
							c0.5-0.3,0.9-0.6,1.4-0.9c0.5-0.3,1-0.6,1.5-0.8c0.2-0.1,0.3-0.2,0.5-0.2c0.3-0.2,0.7-0.3,1-0.5c0.2-0.1,0.4-0.2,0.5-0.2
							c0.3-0.1,0.6-0.2,0.8-0.3c0.2-0.1,0.4-0.1,0.6-0.2c0.3-0.1,0.5-0.2,0.8-0.3c0.2,0,0.4-0.1,0.6-0.2c0.2,0,0.3-0.1,0.5-0.1
							c0.2-0.1,0.5-0.1,0.7-0.2c0.1,0,0.3-0.1,0.5-0.1c0.2,0,0.5-0.1,0.7-0.1c0.1,0,0.3,0,0.4-0.1c0.3,0,0.5,0,0.8-0.1
							c0.1,0,0.2,0,0.3,0c0.4,0,0.7,0,1.1,0c0.1,0,0.2,0,0.2,0c0.3,0,0.6,0,0.8,0c0.1,0,0.2,0,0.3,0c0.3,0,0.5,0.1,0.8,0.1
							c0.1,0,0.2,0,0.2,0c0.3,0,0.7,0.1,1,0.2c0.1,0,0.1,0,0.2,0c0.3,0.1,0.5,0.1,0.8,0.2c0.1,0,0.2,0.1,0.3,0.1
							c0.2,0.1,0.5,0.2,0.7,0.2c0.1,0,0.2,0.1,0.3,0.1c0.3,0.1,0.6,0.2,0.9,0.4c0,0,0.1,0,0.1,0c0.3,0.2,0.7,0.3,1,0.5
							c-3-1.8-6.1-3.5-9.1-5.3c-0.1,0-0.1-0.1-0.2-0.1c-0.3-0.2-0.5-0.3-0.8-0.4c0,0,0,0,0,0c-0.2-0.1-0.5-0.2-0.8-0.4
							c0,0-0.1,0-0.1,0c-0.1,0-0.2-0.1-0.3-0.1c-0.2-0.1-0.5-0.2-0.7-0.3c-0.1,0-0.2-0.1-0.3-0.1c-0.1,0-0.2-0.1-0.2-0.1
							c-0.2-0.1-0.4-0.1-0.6-0.1c-0.1,0-0.1,0-0.2-0.1c-0.3-0.1-0.6-0.1-0.9-0.2c0,0-0.1,0-0.1,0c-0.1,0-0.2,0-0.3,0
							c-0.3,0-0.5-0.1-0.8-0.1c-0.1,0-0.2,0-0.3,0c-0.1,0-0.2,0-0.2,0c-0.2,0-0.4,0-0.6,0c-0.1,0-0.2,0-0.2,0c-0.3,0-0.6,0-1,0
							c0,0-0.1,0-0.1,0c-0.1,0-0.2,0-0.3,0c-0.3,0-0.5,0-0.8,0.1c-0.1,0-0.3,0-0.4,0c-0.1,0-0.2,0-0.3,0c-0.1,0-0.2,0.1-0.4,0.1
							c-0.2,0-0.3,0.1-0.5,0.1c-0.2,0-0.5,0.1-0.7,0.2c-0.2,0-0.3,0.1-0.5,0.1c0,0-0.1,0-0.2,0c-0.1,0-0.2,0.1-0.4,0.1
							c-0.3,0.1-0.5,0.2-0.8,0.2c-0.2,0.1-0.4,0.1-0.6,0.2c-0.3,0.1-0.5,0.2-0.8,0.3c-0.1,0-0.2,0.1-0.3,0.1c-0.1,0-0.2,0.1-0.3,0.1
							c-0.3,0.2-0.7,0.3-1,0.5c-0.1,0.1-0.3,0.1-0.5,0.2c-0.5,0.3-1,0.5-1.5,0.8c-0.5,0.3-1,0.6-1.4,0.9c-0.1,0.1-0.2,0.1-0.3,0.2
							c-0.5,0.3-0.9,0.6-1.4,1c-0.1,0-0.1,0.1-0.1,0.1c-0.4,0.3-0.9,0.6-1.3,1c-0.1,0.1-0.2,0.2-0.3,0.2c-0.4,0.4-0.9,0.7-1.3,1.1
							c-0.1,0.1-0.1,0.1-0.2,0.2c-0.4,0.4-0.8,0.7-1.2,1.1c-0.1,0.1-0.2,0.2-0.3,0.3c0,0.1-0.1,0.1-0.2,0.2
							c-0.2,0.2-0.4,0.5-0.7,0.7c-0.2,0.2-0.4,0.4-0.6,0.7c-0.3,0.3-0.5,0.6-0.8,0.9c-0.2,0.2-0.4,0.5-0.6,0.7c0,0-0.1,0.1-0.1,0.1
							c-0.4,0.5-0.8,0.9-1.2,1.4c-0.1,0.1-0.2,0.2-0.2,0.3c-0.3,0.3-0.6,0.7-0.8,1c-0.1,0.1-0.1,0.2-0.2,0.3
							c-0.1,0.1-0.2,0.3-0.3,0.5c-0.3,0.4-0.6,0.8-0.9,1.3c-0.1,0.1-0.2,0.3-0.3,0.4c0,0.1-0.1,0.1-0.1,0.2
							c-0.1,0.1-0.2,0.3-0.3,0.4c-0.4,0.6-0.8,1.3-1.3,1.9c-0.1,0.1-0.2,0.2-0.2,0.4c-0.1,0.1-0.1,0.2-0.2,0.3
							c-0.5,0.7-0.9,1.5-1.4,2.2c0,0.1-0.1,0.1-0.1,0.2c0,0,0,0,0,0c-0.5,0.8-1,1.7-1.4,2.6c-0.1,0.1-0.1,0.2-0.2,0.3
							c-0.1,0.1-0.2,0.3-0.2,0.5c-0.4,0.7-0.8,1.5-1.1,2.2c-0.1,0.1-0.1,0.3-0.2,0.4c0,0.1-0.1,0.1-0.1,0.2c-0.5,1-0.9,2-1.4,3
							c0,0.1-0.1,0.1-0.1,0.2c-0.1,0.1-0.1,0.3-0.2,0.4c-0.4,1-0.8,2-1.2,3c0,0.1-0.1,0.2-0.1,0.3c0,0,0,0.1-0.1,0.2
							c-0.1,0.2-0.2,0.5-0.3,0.7c-0.2,0.5-0.4,1-0.6,1.5c-0.1,0.3-0.2,0.5-0.3,0.8c-0.1,0.3-0.2,0.6-0.3,0.9c0,0.2-0.1,0.3-0.1,0.5
							c-0.1,0.4-0.2,0.7-0.4,1.1c-0.1,0.4-0.3,0.8-0.4,1.3c-0.1,0.4-0.2,0.8-0.3,1.2c-0.1,0.2-0.1,0.5-0.2,0.7
							c0,0.2-0.1,0.3-0.1,0.5c-0.2,0.6-0.3,1.1-0.4,1.7c-0.1,0.3-0.2,0.7-0.3,1c-0.1,0.6-0.3,1.2-0.4,1.8c-0.1,0.2-0.1,0.5-0.2,0.7
							c0,0.1,0,0.1,0,0.2c0,0.2-0.1,0.3-0.1,0.5c-0.1,0.6-0.2,1.1-0.3,1.7c-0.1,0.2-0.1,0.5-0.1,0.7c-0.1,0.6-0.2,1.3-0.3,1.9
							c0,0.1,0,0.2-0.1,0.4c-0.1,0.6-0.2,1.3-0.3,1.9c0,0.1,0,0.2,0,0.3c-0.1,0.5-0.1,1-0.2,1.5c0,0.4-0.1,0.7-0.1,1.1
							c-0.1,0.5-0.1,1-0.1,1.6c0,0.3,0,0.7-0.1,1c0,0.6-0.1,1.2-0.1,1.7c0,0.3,0,0.6,0,0.8c0,0.8,0,1.7,0,2.5l9.1,5.3
							c0-0.8,0-1.7,0-2.5c0-0.3,0-0.6,0-0.9C779.2,498.8,779.2,498.3,779.3,497.7z"/>
					</g>
				</g>
			</g>
		</g>
		<g>
			<g>
				<g class="st1">
					<g>
						<path class="st59" d="M842.3,417.8c0-0.3,0.1-0.7,0.1-1c0-0.1,0-0.2,0-0.3c0-0.2,0-0.3,0.1-0.5c0-0.1,0-0.2,0-0.3
							c0-0.2,0.1-0.3,0.1-0.4c0-0.1,0-0.2,0-0.3c0.1-0.4,0.2-0.8,0.3-1.2c0-0.1,0-0.1,0.1-0.2c0.1-0.3,0.2-0.7,0.3-1
							c0,0,0-0.1,0-0.1c0.1-0.3,0.2-0.7,0.3-1c0-0.1,0.1-0.2,0.1-0.2c0.1-0.3,0.2-0.5,0.3-0.8c0,0,0-0.1,0.1-0.1
							c0.1-0.3,0.3-0.6,0.4-0.9c0-0.1,0.1-0.1,0.1-0.2c0.1-0.2,0.2-0.5,0.3-0.7c0-0.1,0.1-0.2,0.1-0.2c0.2-0.3,0.3-0.6,0.5-0.8
							c0-0.1,0.1-0.1,0.1-0.2c0.1-0.2,0.3-0.5,0.4-0.7c0-0.1,0.1-0.1,0.1-0.2c0.2-0.3,0.4-0.6,0.6-0.9c0,0,0.1-0.1,0.1-0.1
							c0.2-0.3,0.4-0.6,0.7-0.9c0,0,0-0.1,0.1-0.1c0.3-0.4,0.6-0.7,0.8-1c0,0,0.1-0.1,0.1-0.1c0.2-0.2,0.4-0.4,0.5-0.6c0,0,0,0,0,0
							c0.2-0.2,0.4-0.4,0.6-0.6c0,0,0.1-0.1,0.1-0.1c0.3-0.2,0.5-0.5,0.8-0.7c0,0,0.1,0,0.1-0.1c0.3-0.2,0.6-0.5,0.8-0.7
							c0.1,0,0.1-0.1,0.2-0.1c0.3-0.2,0.6-0.4,0.8-0.6c0.1,0,0.1-0.1,0.2-0.1c0.3-0.2,0.6-0.4,0.9-0.6c0.2-0.1,0.5-0.3,0.7-0.4
							c0.1,0,0.1-0.1,0.2-0.1c0.2-0.1,0.4-0.2,0.5-0.3c0.1,0,0.1-0.1,0.2-0.1c0.2-0.1,0.3-0.1,0.5-0.2c0,0,0.1,0,0.1,0
							c0.2-0.1,0.4-0.1,0.6-0.2c0.1,0,0.2-0.1,0.4-0.1c0.1,0,0.1,0,0.2,0c0.2,0,0.3-0.1,0.5-0.1c0.3,0,0.5-0.1,0.8-0.1
							c0.1,0,0.1,0,0.2,0c0.2,0,0.4,0,0.7,0c0,0,0.1,0,0.1,0c0.2,0,0.4,0,0.5,0.1c0,0,0.1,0,0.2,0c0.2,0,0.4,0.1,0.6,0.1
							c0,0,0,0,0,0c0.2,0.1,0.3,0.1,0.5,0.2c0.1,0,0.1,0,0.2,0.1c0.1,0.1,0.3,0.1,0.4,0.2c0,0,0.1,0.1,0.1,0.1l-6.5-3.7
							c0,0,0,0-0.1,0c0,0-0.1,0-0.1,0c-0.1-0.1-0.3-0.1-0.4-0.2c0,0-0.1,0-0.1,0c0,0,0,0-0.1,0c-0.2-0.1-0.3-0.1-0.5-0.2
							c0,0,0,0,0,0l0,0c-0.2-0.1-0.4-0.1-0.6-0.1c0,0,0,0-0.1,0c0,0-0.1,0-0.1,0c-0.2,0-0.3,0-0.5-0.1c0,0-0.1,0-0.1,0c0,0,0,0,0,0
							c-0.2,0-0.4,0-0.7,0c0,0,0,0,0,0s-0.1,0-0.1,0c-0.2,0-0.5,0-0.8,0.1l0,0c-0.2,0-0.3,0.1-0.5,0.1c-0.1,0-0.1,0-0.2,0
							c-0.1,0-0.2,0-0.3,0.1c0,0,0,0,0,0c-0.2,0.1-0.4,0.1-0.6,0.2c0,0-0.1,0-0.1,0c-0.2,0.1-0.3,0.1-0.5,0.2c0,0,0,0-0.1,0
							c0,0-0.1,0-0.1,0.1c-0.2,0.1-0.4,0.2-0.6,0.3c-0.1,0-0.1,0.1-0.2,0.1c-0.2,0.1-0.5,0.3-0.7,0.4c-0.3,0.2-0.6,0.4-0.9,0.6
							c-0.1,0-0.1,0.1-0.2,0.1c-0.3,0.2-0.6,0.4-0.9,0.6c0,0-0.1,0.1-0.2,0.1c-0.3,0.2-0.6,0.5-0.9,0.7c0,0,0,0-0.1,0.1
							c-0.3,0.2-0.5,0.5-0.8,0.7c0,0,0,0-0.1,0.1c0,0,0,0,0,0.1c-0.2,0.2-0.4,0.4-0.6,0.6c0,0,0,0,0,0c-0.2,0.2-0.4,0.4-0.5,0.6
							c0,0,0,0-0.1,0.1c0,0,0,0.1-0.1,0.1c-0.3,0.3-0.6,0.7-0.9,1c0,0,0,0,0,0c0,0-0.1,0.1-0.1,0.1c-0.2,0.3-0.4,0.6-0.6,0.9
							c0,0,0,0.1-0.1,0.1c0,0,0,0,0,0c-0.2,0.3-0.4,0.6-0.6,0.9c0,0,0,0-0.1,0.1c0,0-0.1,0.1-0.1,0.1c-0.1,0.2-0.3,0.5-0.4,0.7
							c0,0-0.1,0.1-0.1,0.1c0,0,0,0,0,0c-0.2,0.3-0.3,0.6-0.5,0.9c0,0,0,0,0,0.1c0,0.1,0,0.1-0.1,0.2c-0.1,0.2-0.2,0.4-0.3,0.7
							c0,0.1-0.1,0.1-0.1,0.2c0,0,0,0.1,0,0.1c-0.1,0.3-0.3,0.6-0.4,0.9c0,0,0,0,0,0c0,0,0,0.1-0.1,0.1c-0.1,0.3-0.2,0.5-0.3,0.8
							c0,0,0,0.1-0.1,0.1c0,0,0,0.1,0,0.1c-0.1,0.3-0.2,0.6-0.3,1c0,0,0,0,0,0c0,0,0,0,0,0.1c-0.1,0.3-0.2,0.7-0.3,1
							c0,0,0,0.1,0,0.1c0,0,0,0,0,0.1c-0.1,0.4-0.2,0.8-0.3,1.2c0,0,0,0.1,0,0.1c0,0.1,0,0.1,0,0.2c0,0.1-0.1,0.3-0.1,0.5
							c0,0.1,0,0.2-0.1,0.3c0,0.2,0,0.3-0.1,0.5c0,0.1,0,0.1,0,0.2c0,0,0,0,0,0.1c0,0.3-0.1,0.7-0.1,1c0,0.1,0,0.1,0,0.2
							c0,0.3,0,0.7,0,1c0,3.7,1.3,6.3,3.4,7.5l6.5,3.8c-2.1-1.2-3.4-3.8-3.4-7.5c0-0.3,0-0.7,0-1
							C842.3,417.9,842.3,417.8,842.3,417.8z"/>
					</g>
					<g>
						<g>
							<path class="st4" d="M853.9,398.8c6.4-3.7,11.7-0.7,11.7,6.7c0,7.4-5.2,16.4-11.6,20.1c-6.4,3.7-11.7,0.7-11.7-6.7
								C842.2,411.6,847.4,402.6,853.9,398.8z"/>
						</g>
					</g>
				</g>
			</g>
			<g>
				<g class="st1">
					<g>
						<g>
							<path class="st4" d="M853.9,436.7c12.2-7.1,22.2,2.3,22.2,20.9l-44.2,25.5C831.8,464.6,841.6,443.8,853.9,436.7z"/>
						</g>
					</g>
					<g>
						<path class="st59" d="M832,479.5c0-0.2,0-0.5,0.1-0.7c0-0.4,0-0.7,0.1-1.1c0-0.3,0.1-0.5,0.1-0.8c0-0.3,0.1-0.7,0.1-1
							c0.1-0.5,0.1-1,0.2-1.5c0-0.1,0-0.1,0-0.2c0.1-0.5,0.2-0.9,0.2-1.4c0-0.2,0.1-0.3,0.1-0.5c0.1-0.4,0.2-0.8,0.2-1.3
							c0-0.1,0-0.2,0.1-0.3c0-0.2,0.1-0.5,0.2-0.7c0.1-0.4,0.2-0.8,0.3-1.3c0.1-0.2,0.1-0.5,0.2-0.7c0.1-0.4,0.2-0.8,0.3-1.2
							c0.1-0.3,0.1-0.6,0.2-0.8c0.1-0.3,0.1-0.5,0.2-0.8c0.1-0.3,0.2-0.6,0.3-0.9c0.1-0.3,0.2-0.5,0.3-0.8c0.1-0.3,0.2-0.6,0.3-1
							c0.1-0.2,0.1-0.4,0.2-0.6c0.1-0.4,0.3-0.7,0.4-1.1c0.1-0.2,0.1-0.3,0.2-0.5c0-0.1,0.1-0.2,0.1-0.3c0.3-0.7,0.6-1.4,0.9-2.1
							c0.1-0.1,0.1-0.3,0.2-0.4c0.3-0.7,0.6-1.4,1-2.1c0.1-0.1,0.1-0.3,0.2-0.5c0.3-0.5,0.5-1.1,0.8-1.6c0.1-0.2,0.2-0.3,0.3-0.5
							c0.3-0.6,0.7-1.2,1-1.8c0-0.1,0.1-0.1,0.1-0.2c0.3-0.5,0.6-1.1,1-1.6c0.1-0.2,0.2-0.3,0.3-0.5c0.3-0.5,0.6-0.9,0.9-1.4
							c0.1-0.1,0.2-0.3,0.3-0.4c0.1-0.1,0.1-0.2,0.2-0.3c0.2-0.3,0.4-0.6,0.7-0.9c0.1-0.1,0.2-0.2,0.2-0.3c0.2-0.3,0.5-0.6,0.7-0.9
							c0.1-0.1,0.1-0.1,0.2-0.2c0.3-0.4,0.6-0.7,0.9-1.1c0.2-0.2,0.3-0.3,0.5-0.5c0.2-0.2,0.4-0.4,0.5-0.6c0.2-0.2,0.3-0.3,0.5-0.5
							c0.2-0.2,0.4-0.4,0.6-0.6c0.1-0.1,0.1-0.1,0.2-0.2c0.3-0.3,0.5-0.5,0.8-0.8c0.1-0.1,0.1-0.1,0.2-0.1c0.3-0.3,0.6-0.5,0.9-0.8
							c0.1-0.1,0.2-0.1,0.2-0.2c0.3-0.2,0.6-0.5,0.9-0.7c0,0,0.1-0.1,0.1-0.1c0.3-0.2,0.7-0.5,1-0.7c0.1,0,0.1-0.1,0.2-0.2
							c0.3-0.2,0.7-0.4,1-0.6c0.4-0.2,0.7-0.4,1.1-0.6c0.1,0,0.2-0.1,0.3-0.2c0.2-0.1,0.5-0.2,0.7-0.3c0.1-0.1,0.2-0.1,0.4-0.2
							c0.2-0.1,0.4-0.2,0.6-0.2c0.1,0,0.3-0.1,0.4-0.1c0.2-0.1,0.4-0.1,0.6-0.2c0.1,0,0.3-0.1,0.4-0.1c0.1,0,0.2-0.1,0.3-0.1
							c0.2,0,0.3-0.1,0.5-0.1c0.1,0,0.2,0,0.3-0.1c0.2,0,0.3-0.1,0.5-0.1c0.1,0,0.2,0,0.3,0c0.2,0,0.4,0,0.6-0.1c0.1,0,0.1,0,0.2,0
							c0.3,0,0.5,0,0.7,0c0.1,0,0.1,0,0.2,0c0.2,0,0.4,0,0.6,0c0.1,0,0.1,0,0.2,0c0.2,0,0.4,0,0.6,0.1c0.1,0,0.1,0,0.2,0
							c0.2,0,0.5,0.1,0.7,0.1c0.1,0,0.1,0,0.1,0c0.2,0,0.4,0.1,0.5,0.1c0.1,0,0.1,0,0.2,0.1c0.2,0.1,0.3,0.1,0.5,0.2
							c0.1,0,0.1,0,0.2,0.1c0.2,0.1,0.4,0.2,0.6,0.3c0,0,0,0,0.1,0c0.2,0.1,0.5,0.2,0.7,0.4c-2.2-1.3-4.3-2.5-6.4-3.8
							c0,0-0.1,0-0.1-0.1c-0.2-0.1-0.4-0.2-0.6-0.3c0,0,0,0,0,0c-0.2-0.1-0.4-0.2-0.5-0.2c0,0-0.1,0-0.1,0c-0.1,0-0.1,0-0.2-0.1
							c-0.2-0.1-0.3-0.1-0.5-0.2c-0.1,0-0.1-0.1-0.2-0.1c0,0-0.1,0-0.2,0c-0.1,0-0.3-0.1-0.4-0.1c0,0-0.1,0-0.1,0
							c-0.2,0-0.4-0.1-0.6-0.1c0,0,0,0-0.1,0c-0.1,0-0.1,0-0.2,0c-0.2,0-0.4,0-0.6-0.1c-0.1,0-0.2,0-0.2,0c-0.1,0-0.1,0-0.2,0
							c-0.1,0-0.3,0-0.4,0c0,0-0.1,0-0.2,0c-0.2,0-0.4,0-0.7,0c0,0,0,0-0.1,0c-0.1,0-0.1,0-0.2,0c-0.2,0-0.4,0-0.6,0
							c-0.1,0-0.2,0-0.3,0c-0.1,0-0.2,0-0.2,0c-0.1,0-0.2,0-0.2,0c-0.1,0-0.2,0-0.4,0.1c-0.2,0-0.3,0.1-0.5,0.1
							c-0.1,0-0.2,0.1-0.3,0.1c0,0-0.1,0-0.1,0c-0.1,0-0.2,0.1-0.3,0.1c-0.2,0.1-0.4,0.1-0.6,0.2c-0.1,0-0.3,0.1-0.4,0.1
							c-0.2,0.1-0.4,0.1-0.6,0.2c-0.1,0-0.1,0-0.2,0.1c-0.1,0-0.1,0.1-0.2,0.1c-0.2,0.1-0.5,0.2-0.7,0.3c-0.1,0-0.2,0.1-0.3,0.2
							c-0.3,0.2-0.7,0.4-1.1,0.6c-0.3,0.2-0.7,0.4-1,0.6c-0.1,0-0.2,0.1-0.2,0.2c-0.3,0.2-0.7,0.4-1,0.7c0,0-0.1,0.1-0.1,0.1
							c-0.3,0.2-0.6,0.5-0.9,0.7c-0.1,0.1-0.1,0.1-0.2,0.2c-0.3,0.3-0.6,0.5-1,0.8c0,0-0.1,0.1-0.1,0.1c-0.3,0.2-0.6,0.5-0.8,0.8
							c-0.1,0.1-0.1,0.1-0.2,0.2c0,0-0.1,0.1-0.1,0.1c-0.2,0.2-0.3,0.3-0.5,0.5c-0.2,0.2-0.3,0.3-0.5,0.5c-0.2,0.2-0.4,0.4-0.5,0.6
							c-0.2,0.2-0.3,0.3-0.5,0.5c0,0,0,0-0.1,0.1c-0.3,0.3-0.6,0.7-0.8,1c0,0.1-0.1,0.1-0.2,0.2c-0.2,0.2-0.4,0.5-0.6,0.7
							c0,0.1-0.1,0.1-0.2,0.2c-0.1,0.1-0.1,0.2-0.2,0.3c-0.2,0.3-0.4,0.6-0.7,0.9c-0.1,0.1-0.1,0.2-0.2,0.3c0,0.1-0.1,0.1-0.1,0.2
							c-0.1,0.1-0.1,0.2-0.2,0.3c-0.3,0.4-0.6,0.9-0.9,1.4c-0.1,0.1-0.1,0.2-0.2,0.3c0,0.1-0.1,0.1-0.1,0.2c-0.3,0.5-0.6,1.1-1,1.6
							c0,0-0.1,0.1-0.1,0.1c0,0,0,0,0,0c-0.3,0.6-0.7,1.2-1,1.8c0,0.1-0.1,0.1-0.1,0.2c-0.1,0.1-0.1,0.2-0.2,0.3
							c-0.3,0.5-0.5,1.1-0.8,1.6c0,0.1-0.1,0.2-0.2,0.3c0,0,0,0.1-0.1,0.1c-0.3,0.7-0.6,1.4-1,2.1c0,0.1,0,0.1-0.1,0.2
							c0,0.1-0.1,0.2-0.1,0.3c-0.3,0.7-0.6,1.4-0.9,2.1c0,0.1-0.1,0.1-0.1,0.2c0,0,0,0.1,0,0.1c-0.1,0.2-0.1,0.3-0.2,0.5
							c-0.1,0.4-0.3,0.7-0.4,1.1c-0.1,0.2-0.1,0.4-0.2,0.6c-0.1,0.2-0.2,0.4-0.2,0.6c0,0.1-0.1,0.2-0.1,0.3
							c-0.1,0.3-0.2,0.5-0.3,0.8c-0.1,0.3-0.2,0.6-0.3,0.9c-0.1,0.3-0.2,0.6-0.2,0.8c-0.1,0.2-0.1,0.3-0.1,0.5
							c0,0.1-0.1,0.2-0.1,0.3c-0.1,0.4-0.2,0.8-0.3,1.2c-0.1,0.2-0.1,0.5-0.2,0.7c-0.1,0.4-0.2,0.9-0.3,1.3c0,0.2-0.1,0.3-0.1,0.5
							c0,0,0,0.1,0,0.1c0,0.1,0,0.3-0.1,0.4c-0.1,0.4-0.2,0.8-0.2,1.2c0,0.2,0,0.3-0.1,0.5c-0.1,0.4-0.2,0.9-0.2,1.3
							c0,0.1,0,0.2,0,0.3c-0.1,0.4-0.1,0.9-0.2,1.3c0,0.1,0,0.1,0,0.2c0,0.4-0.1,0.7-0.1,1.1c0,0.2-0.1,0.5-0.1,0.8
							c0,0.4-0.1,0.7-0.1,1.1c0,0.2,0,0.5,0,0.7c0,0.4,0,0.8-0.1,1.2c0,0.2,0,0.4,0,0.6c0,0.6,0,1.2,0,1.8l6.5,3.7
							c0-0.6,0-1.2,0-1.8c0-0.2,0-0.4,0-0.6C831.9,480.3,831.9,479.9,832,479.5z"/>
					</g>
				</g>
			</g>
		</g>
	</g>
	<g>
		<g class="st0">
			<path class="st2" d="M761.4,295.4c0.1,0.1,0.1,0.3,0.2,0.4C761.5,295.6,761.5,295.5,761.4,295.4z"/>
		</g>
	</g>
	<g>
		<g>
			<polygon class="st60" points="642.2,123.9 656.3,100.2 838.1,204.2 847.8,220.7 836.3,232 823,228.3 			"/>
			<polygon class="st14" points="665.5,89 690.6,101.5 857.5,197 863.4,204.2 864.2,215.8 837.6,203.9 652.7,98.6 			"/>
			<polygon class="st16" points="828.4,248.9 666.6,155.2 640.7,138.4 655.6,131 844.7,240.7 845.6,252.2 			"/>
			<path class="st61" d="M857.5,197c0,0,9.5,16-19.9,7c0,0,15.7,22.6-14.2,24.2c0,0,15.8,14.2,5,20.7l85.4,16.1L857.5,197z"/>
			<path class="st62" d="M823.4,228.2c28.4-1.6,15.6-22.1,14.3-24.1l48.4,38.5l5.2,13.3L823.4,228.2
				C823.4,228.2,823.4,228.2,823.4,228.2z"/>
			<path class="st63" d="M823.4,228.3l71.3,29.1v4l-66.3-12.5C838.9,242.6,824.3,229.1,823.4,228.3z"/>
			<path class="st64" d="M894.5,241.7c0,0-7.9-1.7-9.2,0c-1.3,1.7,3.8,6,2.7,8c-1.1,2-7.5-1-8.4,1.4c-0.9,2.4,4.3,6.2,4.1,8.2
				l30.2,5.7L894.5,241.7z"/>
		</g>
		<path class="st65" d="M623.3,97c7.9-13.7,20.8-20.9,28.9-16.3c0,0,0,0,0,0l10.4,6c-8.1-4.7-21,2.6-28.9,16.3
			c-7.9,13.7-7.7,28.5,0.4,33.2l0,0l0,0l-8.4-4.9c0,0-1.4-0.8-2-1.1C615.6,125.5,615.5,110.7,623.3,97z"/>
		<path class="st66" d="M633.3,102.8c7.9-13.7,20.8-20.9,28.9-16.3c0,0,0,0,0,0l5.9,3.1c-8.1-4.7-21,2.6-28.9,16.3
			c-7.9,13.7-7.7,28.5,0.4,33.2l4.5,2.9l0,0l-8.4-4.9c0,0-1.4-0.8-2-1.1C625.6,131.3,625.4,116.4,633.3,102.8z"/>
		<path class="st67" d="M639.2,106c7.9-13.7,20.8-21.1,28.9-16.4c0,0,0,0,0,0l5.9,3.1c-8.1-4.7-21,2.6-28.9,16.4
			c-7.9,13.7-7.7,28.7,0.4,33.4l4.5,3l0,0l-8.4-4.9c0,0-1.4-0.8-2-1.2C631.5,134.7,631.3,119.7,639.2,106z"/>
		<path class="st66" d="M645,109.1c7.9-13.9,20.8-21.3,28.9-16.5c0,0,0,0,0,0l5.9,3.1c-8.1-4.7-21,2.7-28.9,16.5
			c-7.9,13.9-7.7,28.9,0.4,33.7l4.5,3l0,0l-8.4-4.9c0,0-1.4-0.8-2-1.2C637.3,138,637.2,123,645,109.1z"/>
		<path class="st67" d="M650.6,112.1c7.9-14,20.8-21.4,28.9-16.6c0,0,0,0,0,0l5.9,3.1c-8.1-4.8-21,2.7-28.9,16.6
			c-7.9,14-7.7,29.1,0.4,33.9l4.5,3l0,0l-8.4-5c0,0-1.4-0.8-2-1.2C642.9,141.2,642.7,126,650.6,112.1z"/>
		<path class="st68" d="M690.6,101.5l-21.4,6.6l-12.6,23.5l10,23.6c0,0-15.2-5.3-10-23.6c0,0,1-16.1,9.7-23.2
			C666.4,108.4,680.2,94.2,690.6,101.5z"/>
		<path class="st66" d="M655.8,114.9c7.9-14,20.8-21.5,28.9-16.7c0,0,0,0,0,0l5.9,3.1c-8.1-4.8-21,2.7-28.9,16.7
			c-7.9,14-7.7,29.3,0.4,34.1l4.5,3l0,0l-8.4-5c0,0-1.4-0.8-2-1.2C648.1,144.2,647.9,129,655.8,114.9z"/>
	</g>
	<path class="st69" d="M863.4,283.6L863.4,283.6l-6-7.2l-166.9-95.5c-0.5-0.4-1.1-0.6-1.6-0.9c0.6,0.2,1.1,0.5,1.7,0.8l-5.9-3.1
		c0,0,0,0,0,0c-0.1-0.1-0.3-0.1-0.4-0.2l-4.8-2.6c0,0,0,0,0,0c-0.3-0.2-0.6-0.3-0.9-0.4L674,172c0,0,0,0,0,0
		c-0.4-0.3-0.9-0.5-1.3-0.6l-4.5-2.3c0,0,0,0,0,0c-8.1-4.7-21,2.6-28.9,16.4c-3.9,6.8-5.8,13.9-5.8,19.9c-0.1-6,1.9-13.2,5.8-20
		c7.9-13.7,20.8-20.9,28.9-16.3l-5.9-3.1l0,0c0,0,0,0-0.1,0l-9.9-5.7c0,0,0,0,0,0c-8.1-4.7-21,2.6-28.9,16.3
		c-7.9,13.7-7.7,28.5,0.4,33.2c0.6,0.4,2,1.1,2,1.1l8.4,4.9c0,0,0,0,0,0c0.7,0.4,1.6,0.9,1.6,0.9l3.8,2.2c0,0,0.1,0.1,0.1,0.1
		c0.6,0.4,2,1.2,2,1.2l3.9,2.2c0,0,0,0,0,0c0.6,0.4,2,1.2,2,1.2l8.4,4.9l0,0l5.5,3.3l-0.5-0.3l1.2,0.7c2,1.6,3.8,2.3,4.3,2.6
		l0.2,0.1l-0.1-0.1c0.1,0,0.1,0,0.1,0l161.8,93.7l66.3,12.5l19.1,3.6L863.4,283.6z M823.6,307.8L823.6,307.8
		C823.6,307.8,823.6,307.8,823.6,307.8L823.6,307.8z M838.1,283.6l-5.5-3.1l5,2.9l0.8,0.4C838.3,283.7,838.2,283.6,838.1,283.6z"/>
	<path class="st17" d="M340.2,433.7v-38.9l4.4-13.9l-5.4-3.6l-0.1,0c-0.8-0.5-1.9-0.5-3.3,0.3l-138.5,80c-2.3,1.4-4.3,4.4-4.3,6.7
		v54.2c0,1,0.4,1.6,0.9,2l0,0.1l6.2,4.1l65.2-43.6l70.5-40.7C338.3,439,340.2,436,340.2,433.7z M257.4,504c-0.8-0.5-1.9-0.4-3.2,0.3
		l-56.8,32.8c-2.3,1.4-4.3,4.4-4.3,6.7V598c0,1,0.4,1.6,0.9,2l0,0.1l5.9,3.9l5.9-9l48.4-27.9c2.3-1.4,4.3-4.4,4.3-6.7v-45.8l4.5-6.9
		L257.4,504L257.4,504z M278.3,522.4v8.5l5.6,3.7l50.5-36.1l5.8-3.3v-0.8l5.6-4l-5.6-3.7L278.3,522.4z M278.3,538.6v8.5l5.6,3.7
		l30.1-25.8l-5.6-3.7L278.3,538.6z M278.3,506.2v8.5l5.6,3.7l50.5-36.1l5.7-3.3v-0.8l5.6-4l-5.6-3.7L278.3,506.2z M278.3,490v8.5
		l5.6,3.7l50.5-36.1l5.8-3.3V462l5.6-4l-5.6-3.7L278.3,490z"/>
	<g>
		<g>
			<path class="st58" d="M283.9,550.8l30.1-17.4v-8.5l-30.1,17.4V550.8z M283.9,534.6l61.9-35.7v-8.5l-61.9,35.7V534.6z M259.8,508
				L203,540.8c-2.3,1.4-4.3,4.4-4.3,6.7v54.2c0,2.3,1.9,3.2,4.3,1.8l56.8-32.8c2.3-1.4,4.3-4.4,4.3-6.7v-54.2
				C264.1,507.5,262.1,506.6,259.8,508z M283.9,518.4l61.9-35.7v-8.5l-61.9,35.7V518.4z M341.5,381.3l-138.5,80
				c-2.3,1.4-4.3,4.4-4.3,6.7v54.2c0,2.3,1.9,3.2,4.3,1.8l138.5-80c2.3-1.4,4.3-4.4,4.3-6.7v-54.2
				C345.8,380.8,343.9,380,341.5,381.3z M283.9,502.2l61.9-35.7V458l-61.9,35.7V502.2z"/>
		</g>
	</g>
	<polygon class="st14" points="283.9,550.8 314,533.4 314,524.9 283.9,542.3 	"/>
</g>
</svg>
